<svg width="50" height="50" viewBox="0 0 50 50" fill="none" xmlns="http://www.w3.org/2000/svg">
<path d="M36.5688 28.1888C37.5981 28.3838 38.5868 28.6344 39.5347 28.9398C41.0676 29.4337 42.496 30.0361 43.8198 30.7484V30.7494C45.0291 31.4212 45.9246 32.154 46.5317 32.9369C47.1284 33.7063 47.4164 34.5284 47.4165 35.4163V41.1663H40.0835V35.4163C40.0834 33.7906 39.629 32.2352 38.7349 30.7572C38.1626 29.8111 37.439 28.9557 36.5688 28.1888ZM18.7505 27.5833C21.0023 27.5834 23.2195 27.8476 25.4028 28.3763C27.5864 28.9051 29.7391 29.6988 31.8599 30.7591C32.7812 31.237 33.5195 31.9281 34.0796 32.8402C34.6379 33.7496 34.9165 34.7437 34.9165 35.8333V41.1663H2.5835V35.8333C2.5835 34.7436 2.86298 33.7496 3.42139 32.8402C3.9813 31.9283 4.7191 31.2379 5.64014 30.7601C7.76095 29.6997 9.91347 28.9052 12.0972 28.3763C14.2807 27.8475 16.4984 27.5833 18.7505 27.5833ZM18.7505 30.7503C16.7656 30.7503 14.7982 30.989 12.8501 31.4671C10.902 31.9453 8.97396 32.6625 7.06787 33.6156L7.05811 33.6204L7.04932 33.6253C6.6595 33.8419 6.34469 34.1464 6.10986 34.5306C5.8688 34.9251 5.75049 35.3635 5.75049 35.8333V38.0003H31.7505V35.8333C31.7505 35.3635 31.6312 34.9251 31.3901 34.5306C31.1554 34.1466 30.8413 33.8419 30.4517 33.6253L30.4321 33.6156L29.7163 33.2689C28.0439 32.4868 26.3554 31.8855 24.6509 31.4671C22.7027 30.9889 20.7354 30.7504 18.7505 30.7503ZM18.7505 8.83334C20.9084 8.83341 22.7429 9.59625 24.2817 11.1351C25.8206 12.6739 26.5834 14.5085 26.5835 16.6663C26.5835 18.8243 25.8207 20.6596 24.2817 22.1986C22.7429 23.7373 20.9083 24.5003 18.7505 24.5003C16.5925 24.5003 14.7572 23.7375 13.2183 22.1986C11.6793 20.6596 10.9165 18.8243 10.9165 16.6663C10.9166 14.5086 11.6795 12.6739 13.2183 11.1351C14.7572 9.59617 16.5925 8.83334 18.7505 8.83334ZM31.2505 8.83334C33.4084 8.83341 35.2429 9.59625 36.7817 11.1351C38.3206 12.6739 39.0834 14.5085 39.0835 16.6663C39.0835 18.8243 38.3207 20.6596 36.7817 22.1986C35.2429 23.7373 33.4083 24.5003 31.2505 24.5003C30.9025 24.5003 30.4426 24.4603 29.8647 24.3753C29.6306 24.3409 29.4153 24.3035 29.2183 24.2669C29.9506 23.2826 30.5341 22.2144 30.9634 21.0599C31.4878 19.6494 31.7505 18.1836 31.7505 16.6663C31.7505 15.1492 31.4877 13.6841 30.9634 12.2738C30.5274 11.101 29.9327 10.017 29.1841 9.01986C29.4051 8.96889 29.6256 8.93206 29.8452 8.90853C30.3137 8.85834 30.7823 8.83334 31.2505 8.83334ZM18.7505 12.0003C17.471 12.0003 16.3626 12.4615 15.4536 13.3704C14.5448 14.2793 14.0836 15.3871 14.0835 16.6663C14.0835 17.9458 14.5446 19.0542 15.4536 19.9632C16.3626 20.8722 17.471 21.3333 18.7505 21.3333C20.0298 21.3333 21.1375 20.872 22.0464 19.9632C22.9554 19.0542 23.4165 17.9458 23.4165 16.6663C23.4164 15.387 22.9553 14.2794 22.0464 13.3704C21.1375 12.4615 20.0298 12.0004 18.7505 12.0003Z" fill="url(#paint0_linear_75_184)" stroke="#CA9B00"/>
<defs>
<linearGradient id="paint0_linear_75_184" x1="25.0002" y1="8.33334" x2="25.0002" y2="41.6667" gradientUnits="userSpaceOnUse">
<stop stop-color="#FFC60A"/>
<stop offset="1" stop-color="#EBB503"/>
</linearGradient>
</defs>
</svg>
