<svg width="50" height="50" viewBox="0 0 50 50" fill="none" xmlns="http://www.w3.org/2000/svg">
<path d="M36.2622 19.2497L37.1147 23.2301L37.1733 23.5036L37.438 23.5964C38.0002 23.7948 38.5177 24.0334 38.9917 24.3112C39.4745 24.5942 39.9511 24.92 40.4204 25.2887L40.6294 25.4538L40.8833 25.3717L44.6665 24.1413L47.1724 28.4372L44.1499 31.0817L43.9536 31.2536L43.9819 31.5133C44.0494 32.1201 44.0835 32.7272 44.0835 33.3337C44.0835 33.94 44.0493 34.5464 43.9819 35.153L43.9536 35.4128L44.1499 35.5846L47.1714 38.2292L44.6665 42.5241L40.8833 41.2956L40.6294 41.2126L40.4204 41.3776C39.9511 41.7464 39.4745 42.0721 38.9917 42.3551C38.5177 42.633 38.0002 42.8715 37.438 43.07L37.1733 43.1637L37.1147 43.4372L36.2622 47.4167H31.2368L30.3843 43.4372L30.3257 43.1637L30.062 43.07C29.4998 42.8715 28.9823 42.633 28.5083 42.3551C28.0255 42.0721 27.5489 41.7464 27.0796 41.3776L26.8696 41.2126L26.6157 41.2956L22.8325 42.5241L20.3267 38.2292L23.3501 35.5846L23.5464 35.4128L23.5181 35.153C23.4507 34.5463 23.4165 33.94 23.4165 33.3337C23.4165 32.7272 23.4506 32.1201 23.5181 31.5133L23.5464 31.2536L23.3501 31.0817L20.3267 28.4372L22.8325 24.1413L26.6157 25.3717L26.8696 25.4538L27.0796 25.2887C27.5489 24.92 28.0255 24.5942 28.5083 24.3112C28.9823 24.0334 29.4998 23.7948 30.062 23.5964L30.3257 23.5036L30.3843 23.2301L31.2368 19.2497H36.2622ZM33.7495 26.5837C31.8825 26.5837 30.2792 27.2425 28.9692 28.5524C27.6591 29.8625 26.9995 31.4665 26.9995 33.3337C26.9996 35.2007 27.6592 36.8039 28.9692 38.1139C30.2793 39.424 31.8824 40.0836 33.7495 40.0837C35.6167 40.0837 37.2206 39.424 38.5308 38.1139C39.8407 36.8039 40.4994 35.2006 40.4995 33.3337C40.4995 31.4665 39.8409 29.8625 38.5308 28.5524C37.2207 27.2423 35.6167 26.5837 33.7495 26.5837ZM15.9438 4.66666L16.4888 7.38932L16.5405 7.65104L16.7866 7.75358C17.191 7.92206 17.5681 8.09836 17.9185 8.2819C18.2586 8.46005 18.612 8.68048 18.9771 8.94596L19.1792 9.09342L19.4185 9.0192L22.061 8.19889L23.7329 11.0407L21.6509 12.8522L21.4429 13.0329L21.4849 13.3053C21.5505 13.7318 21.5835 14.1581 21.5835 14.5837C21.5835 15.009 21.5504 15.4347 21.4849 15.861L21.4429 16.1335L21.6509 16.3151L23.7329 18.1256L22.061 20.9665L19.4185 20.1471L19.1792 20.0729L18.9771 20.2204C18.612 20.4859 18.2586 20.7073 17.9185 20.8854C17.5681 21.0689 17.1909 21.2453 16.7866 21.4137L16.5405 21.5163L16.4888 21.777L15.9438 24.4997H12.5972L12.0522 21.777L12.0005 21.5163L11.7544 21.4137L11.1685 21.1549C10.9798 21.0669 10.7978 20.9772 10.6226 20.8854C10.2825 20.7073 9.92997 20.4859 9.56494 20.2204L9.36182 20.0729L9.12256 20.1471L6.47998 20.9665L4.80713 18.1247L6.89014 16.3151L7.09814 16.1335L7.05615 15.861C6.9906 15.4348 6.95851 15.009 6.9585 14.5837C6.9585 14.1581 6.99055 13.7318 7.05615 13.3053L7.09814 13.0329L6.89014 12.8522L4.80713 11.0407L6.47998 8.19889L9.12256 9.0192L9.36182 9.09342L9.56494 8.94596C9.92988 8.68056 10.2825 8.46001 10.6226 8.2819C10.9729 8.09838 11.3501 7.92205 11.7544 7.75358L12.0005 7.65104L12.0522 7.38932L12.5972 4.66666H15.9438ZM14.271 9.91666C12.9915 9.91666 11.8831 10.3778 10.9741 11.2868C10.0651 12.1958 9.604 13.3042 9.604 14.5837C9.60408 15.8629 10.0653 16.9707 10.9741 17.8796C11.8831 18.7885 12.9915 19.2497 14.271 19.2497C15.5504 19.2496 16.658 18.7885 17.5669 17.8796C18.4758 16.9706 18.9369 15.863 18.937 14.5837C18.937 13.3042 18.4759 12.1958 17.5669 11.2868C16.658 10.378 15.5503 9.91674 14.271 9.91666Z" fill="url(#paint0_linear_75_192)" stroke="#CA9B00"/>
<defs>
<linearGradient id="paint0_linear_75_192" x1="25.9894" y1="4.16666" x2="25.9894" y2="47.9167" gradientUnits="userSpaceOnUse">
<stop stop-color="#FFC60A"/>
<stop offset="1" stop-color="#EBB503"/>
</linearGradient>
</defs>
</svg>
