<svg width="24" height="24" viewBox="0 0 24 24" fill="none" xmlns="http://www.w3.org/2000/svg">
<path d="M11.5271 11.5281C12.0555 11.5281 12.5078 11.3399 12.8841 10.9637C13.2603 10.5874 13.4485 10.1351 13.4485 9.60672C13.4485 9.07835 13.2603 8.62604 12.8841 8.24978C12.5078 7.87352 12.0555 7.68539 11.5271 7.68539C10.9988 7.68539 10.5465 7.87352 10.1702 8.24978C9.79393 8.62604 9.6058 9.07835 9.6058 9.60672C9.6058 10.1351 9.79393 10.5874 10.1702 10.9637C10.5465 11.3399 10.9988 11.5281 11.5271 11.5281ZM11.5271 18.589C13.4805 16.7957 14.9295 15.1666 15.8741 13.7016C16.8188 12.2365 17.2911 10.9356 17.2911 9.79885C17.2911 8.05364 16.7347 6.62465 15.622 5.51188C14.5092 4.39911 13.1443 3.84272 11.5271 3.84272C9.91001 3.84272 8.54506 4.39911 7.43229 5.51188C6.31952 6.62465 5.76313 8.05364 5.76313 9.79885C5.76313 10.9356 6.23546 12.2365 7.18011 13.7016C8.12477 15.1666 9.57378 16.7957 11.5271 18.589ZM11.5271 21.1347C8.94934 18.9412 7.02401 16.9038 5.75112 15.0225C4.47824 13.1412 3.8418 11.4 3.8418 9.79885C3.8418 7.39719 4.61433 5.48386 6.15941 4.05887C7.70448 2.63388 9.49372 1.92139 11.5271 1.92139C13.5605 1.92139 15.3498 2.63388 16.8949 4.05887C18.4399 5.48386 19.2125 7.39719 19.2125 9.79885C19.2125 11.4 18.576 13.1412 17.3031 15.0225C16.0303 16.9038 14.1049 18.9412 11.5271 21.1347Z" fill="#F5C024"/>
</svg>
