<svg width="32" height="31" viewBox="0 0 32 31" fill="none" xmlns="http://www.w3.org/2000/svg">
<g clip-path="url(#clip0_78_507)">
<path d="M21.4595 18.4568L23.2385 16.6778L18.5368 11.976V6.13058H15.9953V12.9926L21.4595 18.4568ZM17.266 25.1917C15.5082 25.1917 13.8562 24.8582 12.3101 24.191C10.7641 23.5239 9.41919 22.6185 8.27552 21.4748C7.13185 20.3312 6.22645 18.9863 5.55931 17.4402C4.89216 15.8941 4.55859 14.2422 4.55859 12.4843C4.55859 10.7264 4.89216 9.07447 5.55931 7.5284C6.22645 5.98233 7.13185 4.63745 8.27552 3.49378C9.41919 2.35011 10.7641 1.44471 12.3101 0.777567C13.8562 0.110426 15.5082 -0.223145 17.266 -0.223145C19.0239 -0.223145 20.6759 0.110426 22.2219 0.777567C23.768 1.44471 25.1129 2.35011 26.2566 3.49378C27.4002 4.63745 28.3056 5.98233 28.9728 7.5284C29.6399 9.07447 29.9735 10.7264 29.9735 12.4843C29.9735 14.2422 29.6399 15.8941 28.9728 17.4402C28.3056 18.9863 27.4002 20.3312 26.2566 21.4748C25.1129 22.6185 23.768 23.5239 22.2219 24.191C20.6759 24.8582 19.0239 25.1917 17.266 25.1917ZM17.266 22.6503C20.0829 22.6503 22.4814 21.6601 24.4616 19.6799C26.4419 17.6996 27.432 15.3011 27.432 12.4843C27.432 9.66748 26.4419 7.26895 24.4616 5.28871C22.4814 3.30847 20.0829 2.31834 17.266 2.31834C14.4492 2.31834 12.0507 3.30847 10.0704 5.28871C8.0902 7.26895 7.10008 9.66748 7.10008 12.4843C7.10008 15.3011 8.0902 17.6996 10.0704 19.6799C12.0507 21.6601 14.4492 22.6503 17.266 22.6503Z" fill="#FFC60A"/>
</g>
<defs>
<clipPath id="clip0_78_507">
<rect width="30.4979" height="30.4979" fill="white" transform="translate(0.94043)"/>
</clipPath>
</defs>
</svg>
