<svg width="31" height="31" viewBox="0 0 31 31" fill="none" xmlns="http://www.w3.org/2000/svg">
<path d="M15.2661 15.548C15.965 15.548 16.5633 15.2992 17.061 14.8015C17.5587 14.3038 17.8075 13.7054 17.8075 13.0065C17.8075 12.3076 17.5587 11.7093 17.061 11.2116C16.5633 10.7139 15.965 10.465 15.2661 10.465C14.5671 10.465 13.9688 10.7139 13.4711 11.2116C12.9734 11.7093 12.7246 12.3076 12.7246 13.0065C12.7246 13.7054 12.9734 14.3038 13.4711 14.8015C13.9688 15.2992 14.5671 15.548 15.2661 15.548ZM15.2661 24.888C17.8499 22.5159 19.7666 20.361 21.0162 18.4231C22.2657 16.4852 22.8905 14.7644 22.8905 13.2607C22.8905 10.9522 22.1545 9.06193 20.6826 7.58998C19.2107 6.11804 17.4051 5.38207 15.2661 5.38207C13.127 5.38207 11.3215 6.11804 9.84951 7.58998C8.37756 9.06193 7.64159 10.9522 7.64159 13.2607C7.64159 14.7644 8.26637 16.4852 9.51593 18.4231C10.7655 20.361 12.6822 22.5159 15.2661 24.888ZM15.2661 28.2555C11.8562 25.3539 9.30944 22.6589 7.6257 20.1704C5.94197 17.6818 5.1001 15.3786 5.1001 13.2607C5.1001 10.0838 6.12199 7.55292 8.16577 5.66798C10.2095 3.78305 12.5763 2.84058 15.2661 2.84058C17.9558 2.84058 20.3226 3.78305 22.3663 5.66798C24.4101 7.55292 25.432 10.0838 25.432 13.2607C25.432 15.3786 24.5901 17.6818 22.9064 20.1704C21.2227 22.6589 18.6759 25.3539 15.2661 28.2555Z" fill="#FFC60A"/>
</svg>
