<svg width="24" height="24" viewBox="0 0 24 24" fill="none" xmlns="http://www.w3.org/2000/svg">
<path d="M19.9098 20.3496C17.9084 20.3496 15.931 19.9133 13.9776 19.0407C12.0243 18.1681 10.2471 16.9312 8.64595 15.3301C7.04484 13.729 5.80798 11.9518 4.93537 9.99843C4.06277 8.04508 3.62646 6.06771 3.62646 4.06632C3.62646 3.77812 3.72253 3.53795 3.91466 3.34582C4.1068 3.15368 4.34696 3.05762 4.63516 3.05762H8.52587C8.75002 3.05762 8.95016 3.13367 9.12628 3.28578C9.3024 3.43788 9.40648 3.61801 9.4385 3.82615L10.0629 7.18848C10.095 7.44466 10.0869 7.66081 10.0389 7.83693C9.99088 8.01306 9.90282 8.16516 9.77473 8.29325L7.44512 10.6469C7.76534 11.2393 8.1456 11.8117 8.58591 12.3641C9.02621 12.9165 9.51055 13.4488 10.0389 13.9612C10.5353 14.4575 11.0556 14.9178 11.6 15.3421C12.1444 15.7664 12.7208 16.1547 13.3292 16.507L15.5868 14.2494C15.7309 14.1053 15.919 13.9972 16.1512 13.9252C16.3833 13.8531 16.6115 13.8331 16.8356 13.8651L20.1499 14.5376C20.3741 14.6016 20.5582 14.7177 20.7023 14.8858C20.8464 15.0539 20.9185 15.2421 20.9185 15.4502V19.3409C20.9185 19.6291 20.8224 19.8693 20.6303 20.0614C20.4381 20.2536 20.198 20.3496 19.9098 20.3496ZM6.53248 8.82162L8.11758 7.23652L7.7093 4.97895H5.57182C5.65187 5.63541 5.76395 6.28386 5.90805 6.9243C6.05215 7.56475 6.26029 8.19718 6.53248 8.82162ZM15.1304 17.4196C15.7549 17.6918 16.3913 17.9079 17.0398 18.068C17.6882 18.2281 18.3407 18.3322 18.9971 18.3803V16.2668L16.7396 15.8105L15.1304 17.4196Z" fill="#FFC60A"/>
</svg>
