<svg width="1824" height="1394" viewBox="0 0 1824 1394" fill="none" xmlns="http://www.w3.org/2000/svg">
<g clip-path="url(#clip0_267_2)">
<path d="M462.757 110.793C470.632 105.02 478.161 99.3797 485.858 93.9798C508.304 78.2324 532.4 65.3226 557.242 53.905C581.073 42.9521 605.643 33.8011 631.223 27.6844C646.856 23.9464 662.462 19.9977 678.247 17.0314C689.863 14.8484 701.718 13.393 713.522 12.8639C738.885 11.7272 764.285 10.8773 789.666 10.961C802.106 11.0021 814.641 12.7774 826.949 14.8552C847.616 18.3441 868.457 21.5257 888.633 27.0107C910.661 32.9991 932.355 40.6101 953.589 49.0387C986.026 61.9139 1016.32 79.0815 1044.66 99.46C1056.85 108.219 1068.67 117.535 1080.15 127.205C1090.03 135.531 1099.26 144.647 1108.62 153.577C1110.75 155.612 1112.48 155.634 1115.23 154.949C1129.71 151.345 1144.13 147.161 1158.84 144.993C1174.36 142.707 1190.09 143.534 1205.8 145.509C1227.43 148.228 1248.01 154.174 1267.57 163.46C1281.63 170.129 1294.63 178.593 1306.77 188.477C1322.57 201.337 1336.13 216.138 1347.19 233.149C1362.64 256.908 1373.58 282.612 1377.08 310.892C1378.97 326.1 1380.42 341.547 1379.95 356.822C1379.12 383.991 1373.07 410.172 1361.65 435.106C1352.07 455.995 1340.12 475.477 1325.27 492.706C1307.18 513.685 1287.49 533.317 1268.1 553.138C1257.43 564.041 1245.93 574.126 1234.82 584.599C1216.95 601.45 1199.09 618.323 1181.22 635.173C1170.11 645.647 1158.96 656.08 1147.85 666.558C1129.62 683.76 1111.42 700.99 1093.19 718.195C1081.85 728.903 1070.48 739.59 1059.12 750.278C1042.44 765.967 1025.73 781.628 1009.09 797.372C1007.69 798.703 1006.79 800.571 1005.66 802.19C1005.93 802.666 1006.2 803.143 1006.48 803.619C1070.05 803.619 1133.62 803.619 1197.19 803.619C1260.66 803.619 1324.14 803.619 1387.92 803.619C1387.92 814.352 1387.92 824.739 1387.92 835.617C1385.93 835.617 1384.14 835.617 1382.34 835.617C1295.18 835.62 1208.02 835.666 1120.87 835.519C1115.81 835.51 1112.27 836.829 1108.71 840.505C1083.05 867.017 1054.03 889.468 1022.93 909.138C985.819 932.611 946.14 950.89 903.937 962.992C881.556 969.41 858.616 974.129 835.691 978.318C821.157 980.973 806.21 981.691 791.406 982.458C774.822 983.317 758.16 984.016 741.588 983.37C725.493 982.742 709.365 980.988 693.44 978.513C674.312 975.541 655.022 972.552 636.46 967.264C613.163 960.626 590.231 952.413 567.689 943.495C535.949 930.938 506.7 913.514 478.96 893.709C466.479 884.799 454.471 875.165 442.769 865.246C432.525 856.564 423.11 846.909 413.073 837.97C411.365 836.449 408.372 835.722 405.971 835.72C276.65 835.615 147.328 835.627 18.0066 835.627C14.3691 835.627 10.7317 835.627 6.40769 835.627C6.40769 828.809 6.3608 822.376 6.41939 815.944C6.4951 807.632 4.46813 798.426 7.40154 791.266C10.2635 784.281 18.1212 779.274 23.9781 773.597C42.001 756.127 60.1092 738.745 78.1985 721.344C85.8633 713.971 93.5834 706.655 101.244 699.277C119.925 681.286 138.575 663.264 157.26 645.277C164.323 638.479 171.475 631.774 178.538 624.975C197.463 606.756 216.351 588.498 235.278 570.28C241.742 564.058 248.269 557.901 254.785 551.735C260.455 546.369 266.313 541.187 271.724 535.572C273.103 534.141 273.181 531.395 273.681 529.212C273.853 528.463 273.413 527.594 273.38 526.774C273.027 517.994 272.279 509.203 272.466 500.433C272.741 487.535 273.359 474.622 274.434 461.766C275.751 446.017 276.891 430.182 279.574 414.637C282.56 397.335 286.762 380.205 291.206 363.202C300.249 328.609 314.283 295.953 331.081 264.464C334.968 257.178 339.312 250.13 343.582 243.055C344.745 241.129 345.016 239.955 343.331 237.937C327.27 218.698 308.322 203.12 285.64 192.348C269.93 184.888 253.577 179.33 236.117 177.698C228.072 176.947 220.005 175.777 211.956 175.843C190.484 176.018 169.721 180.149 149.84 188.456C130.691 196.458 113.753 207.649 98.554 221.868C72.2036 246.52 56.0736 276.733 48.6287 311.674C46.4449 321.923 46.1458 332.574 44.9462 343.37C34.776 343.37 24.5309 343.37 13.7234 343.37C13.8485 319.24 17.8276 295.745 26.4466 273.084C41.3084 234.01 65.9575 202.364 100.409 178.866C142.019 150.484 188.133 139.335 238.287 145.507C288.361 151.67 329.836 174.268 363.771 211.706C369.256 204.844 374.12 198.206 379.555 192.074C392.302 177.694 404.68 162.897 418.411 149.505C432.351 135.909 447.736 123.796 462.757 110.793ZM1041 200.483C1053.14 190.654 1065.28 180.825 1077.35 171.051C989.731 80.7323 812.39 3.04034 618.298 67.0437C524.215 98.0682 448.087 154.956 390.34 235.462C338.108 308.28 309.768 390.067 306.578 479.563C299.213 686.147 431.327 869.46 629.462 930.423C704.833 953.613 781.405 956.576 858.516 939.932C935.843 923.242 1004.14 888.474 1064.83 835.5C1033.51 835.5 1003.61 835.5 973.271 835.5C973.271 820.85 973.215 806.721 973.368 792.594C973.381 791.357 974.55 789.911 975.551 788.944C980.204 784.451 985.03 780.137 989.712 775.673C998.375 767.415 1006.99 759.103 1015.61 750.803C1033.69 733.395 1051.76 715.977 1069.84 698.57C1078.11 690.616 1086.39 682.68 1094.65 674.731C1112.39 657.68 1130.12 640.625 1147.85 623.573C1165.1 606.985 1182.36 590.402 1199.61 573.81C1217.45 556.641 1235.4 539.577 1253.09 522.243C1262.34 513.17 1271.11 503.599 1280.13 494.284C1296.53 477.351 1310.55 458.664 1322.5 438.314C1338.27 411.441 1346.76 382.404 1347.99 351.474C1348.48 339.044 1347.03 326.385 1345.11 314.042C1339.63 278.915 1322.96 249.258 1298.18 224.222C1284.13 210.018 1267.63 198.937 1249.34 190.643C1229.44 181.619 1208.47 176.633 1186.78 175.965C1174.66 175.592 1162.35 176.977 1150.33 178.855C1119.88 183.613 1093.36 197.311 1070.3 217.363C1050.01 235.008 1034.83 256.606 1024.82 281.68C1019.3 295.495 1015.39 309.712 1014.26 324.614C1013.79 330.831 1013.26 337.043 1012.75 343.29C1002.26 343.29 991.887 343.29 980.963 343.29C981.622 287.455 1001.79 240.37 1041 200.483ZM207.999 640.499C198.525 649.307 189.023 658.086 179.584 666.931C168.079 677.711 156.624 688.545 145.152 699.361C127.643 715.868 110.099 732.338 92.6462 748.904C82.6418 758.401 72.8636 768.136 62.8427 777.615C55.741 784.332 48.3184 790.712 41.2497 797.462C39.9725 798.682 39.7172 800.972 38.8413 803.136C153.641 803.136 267.365 803.136 381.712 803.136C327.281 735.398 292.886 659.438 278.856 573.977C268.988 583.051 259.415 591.691 250.025 600.525C236.116 613.611 222.336 626.835 207.999 640.499Z" fill="#FBFCFC"/>
<path d="M1633.06 404.669C1655.1 407.772 1675.84 414.102 1695.37 423.826C1710.16 431.188 1723.84 440.398 1736.5 451.212C1760.21 471.455 1778.23 495.946 1791.72 523.796C1801.72 544.441 1808.27 566.239 1812.36 588.9C1815.97 608.919 1817.16 629.05 1815.98 649.177C1814.32 677.424 1807.98 704.725 1795.84 730.541C1788.06 747.057 1778.93 762.744 1767.34 776.776C1755.19 791.488 1741.56 804.852 1726.06 816.135C1707.12 829.927 1686.53 840.608 1664.3 847.98C1648.37 853.262 1632.15 857.533 1615.31 858.589C1600.94 859.49 1586.51 860.935 1572.17 860.358C1553.79 859.618 1535.66 856.358 1517.9 851.003C1492.95 843.477 1469.96 832.184 1448.92 816.876C1435.35 807.004 1423.16 795.69 1412.05 783.034C1398.62 767.735 1387.27 751.126 1378.49 732.862C1368.32 711.684 1360.92 689.536 1358.21 666.042C1356.92 654.792 1355.79 643.523 1354.54 631.902C1366.01 631.902 1376.43 631.902 1386.46 631.902C1387.73 642.96 1388.79 653.764 1390.25 664.514C1392.44 680.58 1397.61 695.79 1403.8 710.725C1411.41 729.109 1422 745.726 1435.02 760.544C1449.61 777.148 1466.33 791.484 1485.79 802.401C1505.1 813.237 1525.55 820.954 1547.29 825.038C1565.87 828.53 1584.56 829.448 1603.52 827.778C1629.32 825.505 1653.5 818.159 1676.37 806.457C1691.09 798.93 1704.46 789.328 1717.04 778.479C1732.49 765.149 1745.19 749.659 1755.88 732.425C1768.51 712.047 1776.94 690.106 1781.35 666.435C1784.27 650.803 1784.96 635.117 1783.99 619.472C1782.37 593.246 1776.49 567.889 1765.88 543.652C1758.78 527.453 1749.98 512.248 1738.58 498.94C1729.27 488.062 1718.77 477.907 1707.55 469.018C1688.7 454.098 1666.89 444.751 1643.46 439.223C1625.29 434.936 1606.81 433.663 1588.32 434.859C1566.12 436.295 1544.35 440.455 1523.45 448.495C1504.77 455.682 1487.77 465.544 1473.07 479.245C1471.85 480.381 1470.04 481.558 1468.5 481.573C1452 481.733 1435.5 481.665 1419.01 481.634C1418.55 481.633 1418.1 481.34 1417.31 481.065C1421.91 464.631 1426.54 448.27 1431.07 431.885C1438.16 406.275 1445.15 380.637 1452.26 355.032C1458.66 331.958 1465.21 308.924 1471.64 285.854C1482.19 247.94 1492.73 210.019 1503.18 172.073C1504.06 168.85 1506.05 168.679 1508.73 168.686C1532.73 168.743 1556.73 168.715 1580.72 168.715C1636.88 168.715 1693.04 168.717 1749.2 168.718C1751 168.718 1752.8 168.718 1754.9 168.718C1754.9 179.444 1754.9 189.833 1754.9 200.625C1679.75 200.625 1604.82 200.625 1529.5 200.625C1506.46 282.843 1483.49 364.79 1460.1 448.245C1463.03 447.326 1465.75 447.228 1467.39 445.844C1488.11 428.288 1511.47 415.712 1537.99 409.911C1552.19 406.805 1566.78 405.301 1581.27 403.829C1591.46 402.792 1601.79 402.706 1612.06 402.805C1618.94 402.872 1625.8 404.006 1633.06 404.669Z" fill="#FBFCFC"/>
<path d="M1406.28 1252.55C1404.37 1252.46 1402.92 1252.37 1401.39 1252.28C1401.39 1214.3 1401.39 1176.72 1401.39 1138.85C1408.99 1138.85 1416.4 1138.85 1424.07 1138.85C1424.07 1141.82 1424.07 1144.61 1424.07 1148.2C1425.46 1147.28 1426.42 1146.84 1427.14 1146.15C1438.39 1135.38 1454.04 1134.09 1467.1 1142.8C1476.02 1148.75 1480.19 1157.66 1481.71 1167.69C1483.41 1178.97 1482.82 1190.29 1476.73 1200.41C1465.28 1219.45 1439.33 1222.79 1424.43 1205.21C1424.43 1221.11 1424.43 1236.45 1424.43 1252.56C1418.23 1252.56 1412.49 1252.56 1406.28 1252.55ZM1424.23 1179.99C1424.54 1180.93 1424.96 1181.84 1425.16 1182.8C1427.7 1195.09 1440.48 1198.67 1449.91 1193.68C1456.4 1190.25 1459.77 1180.88 1458.17 1171.79C1455.98 1159.29 1441.52 1153.42 1431.44 1161.05C1425.47 1165.57 1424.03 1172.07 1424.23 1179.99Z" fill="#F6F8F6"/>
<path d="M1551.46 1215.57C1550.07 1214.59 1548.57 1213.73 1548.32 1212.59C1547.87 1210.61 1548.19 1208.46 1548.19 1207.32C1542.49 1210.14 1537.15 1213.81 1531.24 1215.48C1517.28 1219.44 1502.8 1212.85 1496.04 1199.93C1486.58 1181.87 1487.81 1164.23 1499.81 1147.81C1503.73 1142.44 1509.78 1138.94 1516.52 1137.99C1526.36 1136.59 1536.08 1136.91 1544.13 1144.05C1545.33 1145.12 1546.26 1146.49 1547.88 1148.38C1547.88 1144.94 1547.88 1142.11 1547.88 1138.92C1556.16 1138.92 1563.89 1138.92 1571.91 1138.92C1571.91 1164.3 1571.91 1189.68 1571.91 1215.57C1565.16 1215.57 1558.54 1215.57 1551.46 1215.57ZM1531.5 1195.57C1540.48 1195.55 1545.7 1191.13 1547.91 1181.12C1549.61 1173.37 1546.01 1160.12 1534.52 1158.02C1525.45 1156.37 1517.27 1161.32 1514.65 1171.89C1511.81 1183.34 1519.44 1196.7 1531.5 1195.57Z" fill="#F6F8F7"/>
<path d="M1140.25 1204.97C1140.25 1208.61 1140.25 1211.76 1140.25 1215.24C1132.19 1215.24 1124.47 1215.24 1116.45 1215.24C1116.31 1212.19 1116.17 1209.31 1116.08 1207.42C1110.53 1210.15 1105.18 1213.8 1099.27 1215.49C1085.5 1219.4 1071.32 1212.87 1064.22 1200.35C1054.83 1183.77 1056.08 1162.59 1067.9 1147.7C1072.06 1142.47 1077.95 1138.83 1084.69 1137.95C1096.33 1136.44 1107.57 1137.1 1115.94 1148.65C1116.15 1144.83 1116.31 1141.97 1116.48 1138.84C1124.4 1138.84 1132.14 1138.84 1140.25 1138.84C1140.25 1160.88 1140.25 1182.68 1140.25 1204.97ZM1084.09 1186.13C1091.12 1196.81 1099.78 1199.14 1109.07 1192.68C1115.13 1188.47 1116.76 1182.08 1116.17 1175.27C1115.4 1166.25 1111.24 1159.24 1100.72 1157.57C1094.9 1156.65 1084.34 1161.38 1083.2 1170.95C1082.63 1175.69 1083.52 1180.6 1084.09 1186.13Z" fill="#F6F8F7"/>
<path d="M907.519 1304.55C908.403 1305.77 909.206 1306.92 909.21 1308.07C909.275 1331.73 909.253 1355.38 909.229 1379.04C909.228 1379.69 909.014 1380.33 908.845 1381.28C901.204 1381.28 893.621 1381.28 885.601 1381.28C885.372 1378.29 885.154 1375.45 885 1373.45C879.636 1376.19 874.581 1379.88 868.938 1381.45C854.417 1385.47 840.287 1378.97 833.019 1365.94C823.817 1349.43 825.087 1328.01 837.127 1313.66C840.551 1309.58 845.976 1306.12 851.117 1304.75C863.491 1301.46 875.463 1302.55 884.901 1314.05C885.143 1310.6 885.334 1307.87 885.572 1304.47C892.844 1304.47 899.955 1304.47 907.519 1304.55ZM884.208 1335.79C882.31 1330.38 879.225 1325.97 873.379 1324.47C859.367 1320.87 848.681 1332.7 851.685 1347.5C854.484 1361.29 869.355 1365.6 878.718 1358.34C884.277 1354.03 886.713 1345.11 884.208 1335.79Z" fill="#CBAA68"/>
<path d="M1465.17 1374.68C1464.72 1370.87 1463.3 1373 1462.44 1373.92C1456.35 1380.46 1448.7 1382.91 1440.01 1382.58C1428.09 1382.12 1419.13 1376.48 1413.21 1366.31C1403.61 1349.82 1404.84 1328.17 1417.11 1313.7C1420.8 1309.35 1426.92 1306.04 1432.53 1304.56C1444.47 1301.4 1455.86 1303.07 1464.87 1314.2C1465.08 1310.71 1465.24 1308 1465.42 1304.87C1473.25 1304.87 1480.96 1304.87 1488.94 1304.87C1488.94 1330.28 1488.94 1355.54 1488.94 1381.19C1481.14 1381.19 1473.44 1381.19 1465.18 1381.19C1465.18 1378.98 1465.18 1377.03 1465.17 1374.68ZM1459.92 1357.39C1463.99 1352.79 1465.7 1347.35 1465.18 1341.33C1464.03 1327.99 1454.42 1321.54 1444.28 1324.07C1436.45 1326.03 1432.32 1331.85 1431.38 1339.39C1430.37 1347.49 1432.13 1355.16 1439.95 1359.57C1446.6 1363.34 1453.26 1362.63 1459.92 1357.39Z" fill="#CBAA68"/>
<path d="M1296.49 1190.11C1293.28 1205.79 1277.56 1216.33 1262.18 1216.61C1251.35 1216.8 1241.43 1214.49 1233.3 1207C1222.45 1197.01 1219.73 1183.92 1221.45 1170.18C1223.29 1155.43 1230.93 1143.63 1245.84 1139.5C1266.15 1133.87 1282.91 1137.78 1293.22 1154.14C1298.51 1162.53 1300.2 1172.05 1297.87 1182.55C1280.49 1182.55 1263.09 1182.55 1245.77 1182.55C1245.02 1189.16 1248.28 1194.2 1254.34 1196.45C1260.58 1198.76 1267.03 1196.96 1270.42 1192.45C1271.47 1191.05 1273.63 1189.73 1275.32 1189.67C1282.3 1189.43 1289.29 1189.69 1296.49 1190.11ZM1248.37 1160.93C1247.14 1163.48 1245.91 1166.02 1244.32 1169.3C1255 1169.3 1264.4 1169.3 1274.41 1169.3C1274.07 1167.33 1273.89 1165.59 1273.46 1163.91C1271.26 1155.34 1254.93 1153.68 1248.37 1160.93Z" fill="#F5F7F6"/>
<path d="M1701.2 1165.33C1705.65 1150.8 1714.54 1141.47 1729.28 1137.92C1745.75 1133.95 1763.31 1140.08 1772.04 1153.96C1777.43 1162.53 1779.15 1172.12 1776.82 1182.56C1759.43 1182.56 1742.15 1182.56 1724.95 1182.56C1723.72 1188.47 1726.7 1193.64 1732.48 1196.12C1739.03 1198.93 1745.82 1197.25 1749.4 1192.38C1750.43 1190.99 1752.61 1189.74 1754.32 1189.67C1761.29 1189.36 1768.27 1189.54 1775.75 1189.54C1772.98 1202.37 1764.77 1210.2 1753.49 1214.22C1740.64 1218.8 1727.74 1217.73 1716.05 1209.92C1705.63 1202.97 1701.04 1192.63 1700.29 1180.54C1699.98 1175.65 1700.85 1170.68 1701.2 1165.33ZM1734.46 1156.58C1728.56 1158.64 1724.61 1162.26 1724.15 1169.3C1733.94 1169.3 1743.34 1169.3 1752.96 1169.3C1753.6 1164.88 1751.99 1161.88 1748.59 1159.02C1744.41 1155.5 1739.79 1156.88 1734.46 1156.58Z" fill="#F5F7F6"/>
<path d="M614.891 1303.78C627.162 1303.01 638.965 1302.55 649.172 1310.38C658.7 1317.68 663.885 1327.11 664.361 1339.25C664.798 1350.42 662.802 1360.55 655.256 1369.39C648.594 1377.19 639.981 1381.17 630.333 1382.36C618.89 1383.76 607.974 1381.79 598.411 1374.26C590.024 1367.67 585.752 1358.91 584.492 1348.84C583.239 1338.83 584.657 1329.05 590.409 1320.2C596.195 1311.3 604.539 1306.51 614.891 1303.78ZM612.972 1357.5C621.23 1364.82 630.991 1363.19 637.12 1355.32C641.063 1350.25 640.534 1344.36 640.179 1338.63C639.694 1330.8 633.763 1324.44 626.684 1323.51C619.14 1322.51 611.694 1326.93 609.599 1334.2C607.325 1342.09 607.298 1349.89 612.972 1357.5Z" fill="#CBAA68"/>
<path d="M1299.24 1347.73C1296.84 1368.86 1280.97 1382.1 1260.84 1382.62C1250.88 1382.88 1241.9 1380.59 1233.79 1374.6C1224.74 1367.91 1220.51 1358.58 1219.34 1347.92C1218.16 1337.12 1220.04 1326.76 1227.05 1317.87C1233.89 1309.21 1242.78 1304.23 1253.76 1303.54C1262.91 1302.96 1272.04 1303.04 1280.36 1307.99C1292.26 1315.08 1298.71 1325.38 1299.23 1339.27C1299.33 1341.94 1299.24 1344.6 1299.24 1347.73ZM1260.15 1362.13C1262.99 1360.98 1266.36 1360.46 1268.56 1358.58C1276.27 1351.97 1277.75 1340.9 1272.73 1331.43C1267.34 1321.25 1252.56 1320.61 1246.37 1330.3C1238.09 1343.25 1244.53 1359.1 1260.15 1362.13Z" fill="#CBAA68"/>
<path d="M817.375 1356.36C819.322 1372.34 805.53 1381.36 791.748 1382.51C782.371 1383.29 773.124 1382.45 764.831 1377.27C758.606 1373.39 753.658 1368.45 751.606 1361.12C750.756 1358.08 751.235 1356.25 754.96 1356.43C758.284 1356.58 761.621 1356.47 764.953 1356.44C769.667 1356.4 774.11 1355.65 777.14 1361.34C779.412 1365.62 788.071 1366.58 792.057 1363.85C793.587 1362.8 795.202 1360.26 794.967 1358.67C794.696 1356.84 792.736 1354.43 790.962 1353.79C785.06 1351.66 778.872 1350.35 772.871 1348.48C764.977 1346.02 757.484 1342.91 754.328 1334.22C751.098 1325.32 754.492 1314.47 762.491 1309C774.297 1300.94 800.985 1299.82 811.492 1314.04C814.844 1318.58 816.628 1323.45 817.362 1329.58C810.483 1329.58 804.189 1329.72 797.915 1329.44C796.801 1329.39 795.504 1327.7 794.747 1326.48C791.305 1320.95 783.539 1318.83 778.294 1322.14C774.486 1324.54 774.265 1328.92 778.318 1330.78C782.78 1332.83 787.668 1333.96 792.379 1335.46C799.464 1337.72 807.273 1338.84 812.197 1345.07C814.622 1348.13 815.691 1352.27 817.375 1356.36Z" fill="#C9A969"/>
<path d="M706.174 1382.6C691.083 1382.39 677.521 1373.58 674.021 1361.94C673.566 1360.43 673.469 1358.82 673.076 1356.47C680.637 1356.47 687.582 1356.4 694.521 1356.57C695.351 1356.59 696.334 1357.8 696.931 1358.68C700.937 1364.55 705.648 1366.6 712.196 1364.28C714.228 1363.56 716.856 1360.93 716.884 1359.13C716.913 1357.28 714.475 1354.43 712.486 1353.68C706.785 1351.52 700.723 1350.33 694.88 1348.51C686.965 1346.05 679.493 1342.86 676.331 1334.19C673.009 1325.09 676.728 1314.07 684.961 1308.71C696.974 1300.89 723.259 1300.07 733.571 1314.07C736.423 1317.95 739.265 1324.65 738.704 1329.58C732.491 1329.58 726.195 1329.73 719.919 1329.44C718.797 1329.39 717.494 1327.69 716.724 1326.47C713.205 1320.89 705.594 1318.83 700.266 1322.16C696.492 1324.52 696.281 1328.96 700.298 1330.78C704.773 1332.81 709.767 1333.67 714.347 1335.5C720.752 1338.07 727.419 1340.38 733.189 1344.04C742.963 1350.24 741.53 1369.64 730.344 1376.74C722.963 1381.43 715.096 1382.91 706.174 1382.6Z" fill="#C9A969"/>
<path d="M1118.69 1364.69C1121.8 1364.51 1124.78 1364.75 1127.15 1363.66C1128.64 1362.97 1130.21 1360.09 1129.93 1358.54C1129.58 1356.69 1127.58 1354.37 1125.77 1353.72C1119.87 1351.61 1113.68 1350.3 1107.68 1348.44C1099.76 1345.99 1092.33 1342.76 1089.24 1334.06C1086.08 1325.16 1089.67 1314.34 1097.58 1308.87C1108.33 1301.43 1129.83 1301.16 1140.32 1308.48C1147.34 1313.37 1151.39 1320.08 1152.21 1329.54C1145.33 1329.54 1138.74 1329.7 1132.17 1329.38C1131.12 1329.33 1130.03 1327.26 1129.2 1325.97C1126 1321.07 1118.93 1318.92 1113.99 1321.88C1112.38 1322.84 1110.7 1324.97 1110.57 1326.69C1110.46 1328.09 1112.3 1330.48 1113.8 1331.02C1120.46 1333.45 1127.37 1335.21 1134.07 1337.56C1137.8 1338.86 1141.6 1340.42 1144.83 1342.63C1156.06 1350.33 1154.4 1368.99 1143.6 1376.58C1130.3 1385.91 1102.79 1385.69 1090.34 1368.82C1087.97 1365.6 1087.06 1361.32 1085.02 1356.46C1093.49 1356.46 1100.12 1356.34 1106.74 1356.57C1107.86 1356.61 1108.9 1358.16 1110.03 1358.94C1112.78 1360.83 1115.55 1362.68 1118.69 1364.69Z" fill="#C9A969"/>
<path d="M1213.26 1209.69C1213.26 1211.78 1213.26 1213.41 1213.26 1215.29C1193.12 1215.29 1173.41 1215.29 1153.17 1215.29C1154.19 1207.94 1150.71 1200.31 1155.71 1193.93C1162.62 1185.1 1170.07 1176.68 1177.26 1168.05C1179.84 1164.96 1182.32 1161.8 1185.68 1157.63C1174.45 1157.63 1164.59 1157.63 1154.49 1157.63C1154.49 1151.09 1154.49 1145.16 1154.49 1138.89C1173.89 1138.89 1193.29 1138.89 1213.23 1138.89C1213.23 1144.47 1213.52 1150.11 1213.06 1155.67C1212.91 1157.46 1210.89 1159.18 1209.55 1160.77C1200.43 1171.65 1191.26 1182.48 1182.12 1193.34C1181.84 1193.67 1181.76 1194.17 1181.31 1195.28C1192.04 1195.28 1202.39 1195.28 1213.26 1195.28C1213.26 1200.34 1213.26 1204.79 1213.26 1209.69Z" fill="#F5F7F6"/>
<path d="M388.796 1249.86C376.843 1254 365.448 1253.97 354.232 1248.51C345.306 1244.17 339.816 1237.17 337.038 1226.87C340.413 1226.7 343.432 1226.54 346.68 1226.38C350.693 1238.82 360.517 1243.95 372.185 1244.26C387.776 1244.66 397.368 1236.63 399.206 1220C399.877 1213.92 399.314 1207.71 399.314 1201.22C395.323 1204.85 392.019 1208.74 387.929 1211.43C369.174 1223.78 338.869 1214.04 334.311 1188.53C332.567 1178.77 332.573 1169.19 336.338 1159.82C342.603 1144.23 359.644 1136.4 374.694 1139.08C384.651 1140.86 392.633 1145.41 399.005 1155.06C399.005 1149.27 399.005 1144.77 399.005 1139.89C402.651 1139.89 405.718 1139.89 409.141 1139.89C409.219 1141.32 409.364 1142.77 409.365 1144.22C409.383 1167.53 409.529 1190.85 409.318 1214.16C409.225 1224.36 407.386 1234.35 399.991 1242.05C396.982 1245.19 392.798 1247.19 388.796 1249.86ZM373.22 1208.47C377.934 1206.65 383.357 1205.77 387.229 1202.85C398.417 1194.39 401.152 1182.45 398.231 1169.21C395.919 1158.73 389.642 1151.16 379.028 1148.49C369.15 1146.01 359.81 1147.19 351.765 1154.6C344.284 1161.5 343.407 1170.09 343.258 1179.49C343.004 1195.44 355.064 1208.67 373.22 1208.47Z" fill="#EDF2F2"/>
<path d="M1032.22 1109.07C1038.54 1107.91 1044.51 1106.94 1050.95 1105.9C1050.95 1113.03 1050.95 1119.28 1050.95 1126.22C1045.71 1128.1 1036.81 1127.33 1039.83 1138.27C1043.22 1138.27 1046.94 1138.27 1050.97 1138.27C1050.97 1144.91 1050.97 1150.98 1050.97 1157.63C1047.12 1157.63 1043.4 1157.63 1039.29 1157.63C1039.29 1177.12 1039.29 1196.04 1039.29 1215.27C1031.19 1215.27 1023.48 1215.27 1015.37 1215.27C1015.37 1196.13 1015.37 1177.22 1015.37 1157.86C1012.3 1157.68 1009.57 1157.52 1006.57 1157.34C1006.57 1151.19 1006.57 1145.27 1006.57 1138.79C1009.19 1138.66 1011.93 1138.52 1015.1 1138.36C1014.78 1125.22 1018.71 1114.49 1032.22 1109.07Z" fill="#F5F7F6"/>
<path d="M1675.2 1126.11C1675.2 1130.38 1675.2 1134.18 1675.2 1138.4C1680.59 1138.4 1685.52 1138.4 1690.82 1138.4C1690.82 1144.87 1690.82 1150.91 1690.82 1157.54C1685.8 1157.54 1680.73 1157.54 1675.23 1157.54C1675.23 1168.73 1675.05 1179.35 1675.34 1189.95C1675.44 1193.53 1678.19 1195.42 1681.82 1195.52C1684.79 1195.6 1687.75 1195.54 1690.96 1195.54C1690.96 1202.25 1690.96 1208.52 1690.96 1215.31C1679.74 1215.79 1668.15 1217.38 1659.03 1209.1C1655.58 1205.97 1653.06 1200.51 1652.47 1195.81C1651.21 1186.01 1651.5 1176 1651.2 1166.08C1651.12 1163.44 1651.19 1160.8 1651.19 1157.84C1648.14 1157.65 1645.41 1157.49 1642.44 1157.3C1642.44 1151.11 1642.44 1145.18 1642.44 1138.84C1645.17 1138.68 1647.93 1138.51 1651.04 1138.32C1651.04 1132.26 1651.04 1126.31 1651.04 1119.96C1659.1 1119.96 1666.81 1119.96 1675.2 1119.96C1675.2 1121.79 1675.2 1123.71 1675.2 1126.11Z" fill="#F6F8F7"/>
<path d="M1170.23 1342.99C1170.23 1336.38 1170.23 1330.26 1170.23 1323.96C1167.03 1323.7 1164.44 1323.48 1161.54 1323.24C1161.54 1317.09 1161.54 1311.18 1161.54 1304.8C1164.15 1304.6 1166.75 1304.41 1170.23 1304.15C1170.23 1299.23 1170.27 1294.32 1170.21 1289.4C1170.19 1287.24 1170.22 1285.4 1173.2 1285.43C1180 1285.51 1186.8 1285.46 1194.25 1285.46C1194.25 1290.71 1194.43 1295.49 1194.18 1300.25C1194.01 1303.62 1195.36 1304.66 1198.53 1304.5C1202.16 1304.32 1205.8 1304.45 1209.84 1304.45C1209.84 1310.92 1209.84 1316.95 1209.84 1323.56C1204.78 1323.56 1199.85 1323.56 1194.32 1323.56C1194.32 1334.73 1194.12 1345.34 1194.43 1355.94C1194.53 1359.53 1197.33 1361.38 1201 1361.41C1203.81 1361.44 1206.61 1361.42 1209.83 1361.42C1209.83 1368.19 1209.83 1374.56 1209.83 1381.42C1200.23 1381.46 1190.72 1382.8 1181.67 1377.79C1175.17 1374.2 1172.2 1368.62 1171.32 1361.82C1170.53 1355.76 1170.56 1349.61 1170.23 1342.99Z" fill="#CAAA69"/>
<path d="M745.267 1158C745.267 1151.71 745.267 1145.92 745.267 1139.82C748.731 1139.82 751.798 1139.82 755.354 1139.82C755.354 1144.41 755.354 1148.81 755.354 1153.22C755.71 1153.42 756.067 1153.61 756.424 1153.81C759.298 1150.77 761.771 1147.16 765.112 1144.77C785.557 1130.15 816.983 1142.08 820.486 1169.49C822.1 1182.12 820.601 1193.5 812.775 1203.61C802.215 1217.26 784.212 1220.15 769.928 1213.19C764.8 1210.69 760.534 1206.42 755.418 1202.62C755.418 1218.86 755.418 1235.02 755.418 1251.38C751.85 1251.38 748.915 1251.38 745.267 1251.38C745.267 1220.3 745.267 1189.4 745.267 1158ZM811.27 1182.14C810.924 1177.38 811.213 1172.45 810.105 1167.87C807.464 1156.93 800.522 1149.44 789.224 1147.87C777.985 1146.31 767.837 1147.74 760.091 1159.3C755.582 1166.03 755.09 1173.46 755.27 1181.2C755.546 1193.08 763.344 1203.33 775.165 1206.92C787.079 1210.53 799.583 1206.46 805.932 1196.23C808.395 1192.27 809.518 1187.47 811.27 1182.14Z" fill="#EDF2F2"/>
<path d="M277.765 1352.28C276.62 1339.77 277.421 1328.21 285.071 1317.82C292.334 1307.95 307.369 1303.15 318.138 1304.89C328.231 1306.52 336.546 1311.11 342.938 1320.98C342.938 1306.3 342.938 1292.81 342.938 1278.92C346.586 1278.92 349.652 1278.92 353.061 1278.92C353.061 1312.85 353.061 1346.9 353.061 1381.26C349.92 1381.26 346.876 1381.26 343.283 1381.26C343.283 1376.46 343.283 1371.91 343.283 1365.86C331.905 1382.04 317.495 1386.02 300.688 1380.37C287.688 1376 280.097 1366.37 277.765 1352.28ZM287.385 1337.77C286.789 1349.18 287.722 1359.82 297.379 1368.14C305.865 1375.45 322.976 1376.26 331.443 1368.98C341.547 1360.3 344.739 1349.51 342.404 1336.52C339.038 1317.8 322.042 1309.49 305.234 1314.87C294.923 1318.18 289.107 1326.08 287.385 1337.77Z" fill="#EEF2F3"/>
<path d="M524.404 1157.4C531.736 1144.25 543.038 1138.65 557.326 1138.58C567.775 1138.52 575.576 1142.9 585.972 1154.37C585.972 1140.29 585.972 1126.79 585.972 1112.91C589.579 1112.91 592.648 1112.91 596.039 1112.91C596.039 1146.89 596.039 1180.93 596.039 1215.29C592.887 1215.29 589.84 1215.29 586.273 1215.29C586.273 1210.48 586.273 1205.92 586.273 1202.19C583.093 1204.89 579.931 1207.96 576.397 1210.52C556.844 1224.65 525.105 1213.71 521.142 1187.81C519.546 1177.38 520.009 1167.43 524.404 1157.4ZM548.7 1148.59C542.227 1150.93 536.957 1154.85 533.71 1160.97C526.46 1174.62 529.214 1191.09 540.351 1201.96C548.566 1209.99 565.997 1210.35 574.625 1202.78C584.421 1194.18 587.616 1183.65 585.427 1170.82C582.411 1153.15 566.804 1144.04 548.7 1148.59Z" fill="#EEF2F3"/>
<path d="M65.1697 1205.82C44.9025 1188.86 43.4966 1156.35 56.9902 1137.16C67.1916 1122.65 87.6942 1114.71 105.197 1118.23C126.39 1122.51 138.7 1135.55 143.023 1156.04C146.713 1173.52 142.955 1190 130.294 1202.85C119.194 1214.11 104.993 1218.37 88.9152 1215.97C80.1124 1214.66 72.46 1211.25 65.1697 1205.82ZM119.438 1134.05C108.498 1125.05 95.7601 1124.25 83.2684 1128.4C62.0014 1135.46 55.8486 1155.26 58.9003 1176.08C61.6803 1195.05 77.8201 1208.28 95.6422 1207.92C109.612 1207.63 122.477 1201.15 128.861 1188.71C134.137 1178.44 135.628 1167.62 133.102 1156.54C131.146 1147.96 127.48 1139.97 119.438 1134.05Z" fill="#EDF1F1"/>
<path d="M179.71 1145.7C193.311 1134.73 212.913 1137.7 222.196 1145.05C234.869 1155.07 239.046 1168.43 236.682 1184.35C235.548 1191.98 233.064 1198.64 228.082 1204.53C221.878 1211.85 214.039 1215.83 204.567 1216.56C192.912 1217.46 182.779 1214.98 171.748 1201.78C171.748 1206.74 171.748 1210.86 171.748 1215.29C167.956 1215.29 164.911 1215.29 161.6 1215.29C161.6 1181.11 161.6 1147.19 161.6 1112.9C164.68 1112.9 167.746 1112.9 171.32 1112.9C171.32 1126.32 171.32 1139.72 171.32 1153.55C174.344 1150.72 176.9 1148.34 179.71 1145.7ZM212.186 1149.95C210.156 1149.28 208.171 1148.27 206.088 1147.99C193.215 1146.27 181.475 1148.52 174.338 1162.5C171.055 1168.93 170.853 1175.7 171.544 1182.4C172.695 1193.57 178.132 1202.21 189.119 1206.24C200.13 1210.28 210.405 1208.53 218.927 1200.38C231.999 1187.87 230.317 1158.57 212.186 1149.95Z" fill="#EDF1F1"/>
<path d="M370.317 1343.02C369.7 1323.87 380.783 1309.85 395.669 1305.98C411.715 1301.8 425.283 1306.14 436 1320.66C436 1315.26 436 1310.75 436 1305.87C439.631 1305.87 442.696 1305.87 446.077 1305.87C446.077 1330.89 446.077 1355.93 446.077 1381.27C442.891 1381.27 439.843 1381.27 436.252 1381.27C436.252 1376.45 436.252 1371.91 436.252 1366.97C432.474 1370.57 429.511 1374.12 425.871 1376.73C406.862 1390.38 375.145 1380.09 371.29 1353.82C370.789 1350.4 370.633 1346.94 370.317 1343.02ZM390.507 1368.09C399.353 1376.41 416.405 1376.04 425.16 1368.3C435.426 1359.22 437.723 1347.94 435.308 1335.08C433.445 1325.16 423.72 1315.26 414.074 1313.61C401.217 1311.42 388.775 1317 383.482 1327.33C376.739 1340.49 379.397 1356.94 390.507 1368.09Z" fill="#EDF2F2"/>
<path d="M439.755 1209.23C424.323 1197.4 422.994 1172.59 430.369 1157.54C442.014 1133.76 476.588 1132.53 489.918 1152.42C490.281 1152.96 490.697 1153.47 492.297 1153.79C492.297 1151.61 492.297 1149.43 492.297 1147.25C492.297 1144.93 492.297 1142.6 492.297 1139.9C495.607 1139.9 498.675 1139.9 502.059 1139.9C502.059 1164.93 502.059 1189.98 502.059 1215.32C498.99 1215.32 496.062 1215.32 492.397 1215.32C492.397 1210.69 492.397 1206.04 492.397 1201.39C485.782 1209.78 477.808 1215.18 467.712 1216.43C457.771 1217.67 448.268 1215.73 439.755 1209.23ZM440.172 1195.08C442.038 1197.18 443.892 1199.29 445.772 1201.38C453.743 1210.24 472.193 1210.37 481.146 1202.35C491.503 1193.07 493.854 1181.66 491.218 1168.67C489.168 1158.58 479.059 1148.82 469.635 1147.63C455.956 1145.9 444.361 1151.01 439.382 1161.77C434.398 1172.56 434.963 1183.59 440.172 1195.08Z" fill="#EDF2F2"/>
<path d="M1613.16 1174.25C1612.82 1176.6 1612.26 1178.53 1612.24 1180.47C1612.16 1191.94 1612.2 1203.41 1612.2 1215.23C1604.53 1215.23 1597.15 1215.23 1589.48 1215.23C1589.48 1189.85 1589.48 1164.63 1589.48 1138.97C1596.75 1138.97 1604.12 1138.97 1611.97 1138.97C1611.97 1142.38 1611.97 1145.94 1611.97 1150.96C1619.08 1142.59 1626.39 1137.07 1636.98 1137.67C1636.98 1145.95 1636.98 1153.88 1636.98 1162.22C1627.88 1163.59 1616.02 1159.78 1613.16 1174.25Z" fill="#F5F7F6"/>
<path d="M1339.65 1145.68C1345.63 1140.81 1351.62 1136.89 1359.87 1137.71C1359.87 1145.87 1359.87 1153.92 1359.87 1162.57C1357.29 1162.57 1354.67 1162.5 1352.07 1162.59C1339.03 1163.02 1336.03 1168.21 1335.37 1179.33C1334.76 1189.61 1335.24 1199.96 1335.24 1210.27C1335.23 1211.89 1335.24 1213.51 1335.24 1215.35C1327.46 1215.35 1320.2 1215.35 1312.57 1215.35C1312.57 1189.84 1312.57 1164.5 1312.57 1138.85C1320.03 1138.85 1327.43 1138.85 1335.11 1138.85C1335.11 1142.5 1335.11 1145.96 1335.11 1151.11C1337.14 1148.65 1338.26 1147.29 1339.65 1145.68Z" fill="#F5F7F6"/>
<path d="M1357.1 1303.47C1358.42 1304.34 1360.08 1305.19 1360.1 1306.09C1360.32 1313.38 1360.22 1320.68 1360.22 1328.62C1357.29 1328.62 1354.84 1328.58 1352.38 1328.62C1339.31 1328.84 1335.94 1334.17 1335.34 1345.68C1334.81 1355.81 1335.23 1365.99 1335.23 1376.15C1335.23 1377.77 1335.23 1379.39 1335.23 1381.31C1327.43 1381.31 1320.18 1381.31 1312.57 1381.31C1312.57 1355.82 1312.57 1330.6 1312.57 1304.91C1319.9 1304.91 1327.26 1304.91 1335.07 1304.91C1335.07 1308.4 1335.07 1311.83 1335.07 1316.87C1341.44 1309.31 1347.92 1304.33 1357.1 1303.47Z" fill="#CAAA69"/>
<path d="M619.655 1199.41C610.026 1182.37 612.217 1156.09 630.738 1144.67C643.57 1136.76 657.159 1136.19 670.418 1143.2C683.231 1149.97 689.07 1161.26 689.431 1175.79C689.716 1187.23 687.328 1197.34 678.85 1205.64C667.795 1216.45 654.801 1218.78 640.319 1215.02C631.46 1212.72 624.585 1207.62 619.655 1199.41ZM676.298 1193.53C679.58 1187.42 679.356 1180.79 679.304 1174.13C679.208 1161.77 670.885 1150.93 658.945 1147.87C646.559 1144.7 632.945 1150.85 627.143 1161.86C623.599 1168.58 624.377 1175.7 624.359 1182.78C624.34 1190.2 627.683 1196.52 632.843 1201.26C645.828 1213.18 667.117 1209.48 676.298 1193.53Z" fill="#EDF2F2"/>
<path d="M873.815 1216.58C862.73 1217.28 853.325 1213.91 845.501 1207C838.985 1201.26 835.338 1193.36 834.419 1184.85C832.904 1170.82 835.41 1157.92 846.566 1147.65C859.306 1135.93 884.257 1136.32 897.313 1147.69C911.355 1159.91 913.429 1186.44 902.959 1201.05C896.075 1210.65 886.39 1216.12 873.815 1216.58ZM844.305 1173.76C844.303 1176.25 844.264 1178.75 844.308 1181.25C844.49 1191.68 848.819 1199.86 858.092 1204.8C867.476 1209.8 877.064 1209.65 886.251 1204.07C896.601 1197.78 899.077 1188.07 899.496 1176.49C900.065 1160.81 887.452 1146.41 870.344 1147.29C858.017 1147.93 844.363 1158.66 844.305 1173.76Z" fill="#EDF2F2"/>
<path d="M1372.09 1305.17C1379.64 1305.17 1387.2 1305.17 1395 1305.17C1395 1330.38 1395 1355.62 1395 1381.99C1387.3 1381.52 1379.82 1381.05 1372.25 1379.8C1372.12 1354.39 1372.1 1329.78 1372.09 1305.17Z" fill="#CAAA69"/>
<path d="M1536.21 1319.14C1536.21 1328.7 1536.21 1337.78 1536.21 1347.23C1528.44 1347.23 1522.08 1347.23 1515.21 1347.23C1514.22 1325.02 1513.25 1303.11 1512.26 1280.82C1521 1280.82 1529.37 1280.82 1538.19 1280.82C1537.52 1293.63 1536.87 1306.14 1536.21 1319.14Z" fill="#CAAA69"/>
<path d="M937.311 1171.13C937.311 1186.06 937.311 1200.51 937.311 1215.27C933.902 1215.27 930.86 1215.27 927.525 1215.27C927.525 1190.19 927.525 1165.3 927.525 1139.97C930.485 1139.97 933.542 1139.97 937.245 1139.97C937.245 1143.24 937.245 1146.76 937.245 1150.28C944.049 1142 952.403 1138.41 962.946 1138.57C962.946 1141.79 962.946 1144.84 962.946 1148.47C955.225 1148.12 947.256 1149.26 942.407 1155.53C939.332 1159.5 938.918 1165.54 937.311 1171.13Z" fill="#EDF2F2"/>
<path d="M273.217 1153.12C267.222 1157.37 265.618 1163.43 265.491 1169.8C265.223 1183.26 265.405 1196.74 265.402 1210.21C265.402 1211.83 265.402 1213.45 265.402 1215.34C261.99 1215.34 259.06 1215.34 255.72 1215.34C255.72 1190.3 255.72 1165.29 255.72 1139.9C258.661 1139.9 261.722 1139.9 265.289 1139.9C265.289 1143.3 265.289 1146.72 265.289 1150.14C272.225 1142.07 280.525 1138.2 291.148 1138.63C291.148 1141.91 291.148 1144.84 291.148 1146.96C285.103 1149 279.32 1150.96 273.217 1153.12Z" fill="#EDF1F1"/>
<path d="M305.315 1207.87C305.316 1184.96 305.316 1162.53 305.316 1139.8C308.728 1139.8 311.67 1139.8 315.014 1139.8C315.014 1164.77 315.014 1189.8 315.014 1215.21C312.06 1215.21 309.018 1215.21 305.314 1215.21C305.314 1212.88 305.314 1210.61 305.315 1207.87Z" fill="#EDF1F1"/>
<path d="M497.018 1305.07C504.266 1305.07 511.514 1305.07 518.854 1305.07C519.003 1307.5 519.129 1309.57 519.295 1312.29C534.774 1301.95 549.912 1297.84 564.521 1312.65C558.041 1309.7 552.567 1304.87 544.811 1304.91C536.244 1304.95 529.007 1307.96 522.367 1313.05C521.138 1313.99 519.52 1314.43 517.618 1315.31C518.383 1306 518.383 1305.97 509.806 1306.01C506.987 1306.03 504.051 1305.83 501.398 1306.56C500.009 1306.94 498.157 1309.12 498.144 1310.5C497.94 1332.49 497.944 1354.49 498.149 1376.48C498.16 1377.66 500.247 1379.66 501.568 1379.84C505 1380.32 508.562 1379.78 512.038 1380.07C516.625 1380.45 518.202 1378.69 518.103 1374.06C517.846 1362.07 517.861 1350.07 518.081 1338.07C518.193 1331.99 520.435 1326.11 525.98 1323.42C538.922 1317.14 550.946 1325.13 550.977 1339.48C551.003 1351.31 551.062 1363.14 550.942 1374.97C550.906 1378.55 552.117 1380.25 555.861 1380.05C559.184 1379.87 562.545 1379.78 565.852 1380.07C570.488 1380.47 572.114 1378.45 572.06 1374C571.925 1362.84 572.497 1351.65 571.855 1340.52C571.386 1332.39 571.186 1323.92 566.003 1316.78C565.289 1315.8 565.326 1314.27 565.016 1312.99C569.913 1317.09 572.055 1322.73 572.394 1328.72C573.1 1341.15 573.194 1353.61 573.465 1366.06C573.572 1371.02 573.482 1375.98 573.482 1381.3C565.246 1381.3 557.544 1381.3 549.223 1381.3C549.223 1378.11 549.223 1375.17 549.222 1372.23C549.221 1360.9 549.287 1349.57 549.192 1338.25C549.136 1331.59 545.387 1325.95 540.101 1324.1C534.143 1322.02 526.315 1323.65 523.079 1328.87C520.938 1332.33 519.822 1336.89 519.66 1341.01C519.209 1352.49 519.496 1363.99 519.491 1375.48C519.49 1377.28 519.491 1379.07 519.491 1381.47C511.88 1381.47 504.787 1381.47 497.283 1381.07C496.787 1380.36 496.607 1380.12 496.292 1379.47C496.278 1354.7 496.303 1330.38 496.496 1305.94C496.841 1305.6 496.959 1305.35 497.018 1305.07Z" fill="#B3A176"/>
<path d="M1251.62 1277.78C1260.09 1273.61 1268.21 1269.6 1277.24 1265.16C1277.24 1271.42 1277.39 1276.39 1277.13 1281.34C1277.07 1282.52 1275.91 1284.21 1274.83 1284.69C1264.71 1289.14 1254.5 1293.38 1243.2 1298.15C1243.2 1293.13 1243.41 1289.07 1243.15 1285.04C1242.76 1278.94 1248.57 1280.29 1251.62 1277.78Z" fill="#C7A96A"/>
<path d="M1535.09 1359.94C1539.67 1364.78 1540.68 1370.15 1538.03 1375.74C1535.63 1380.8 1529.33 1383.48 1523.17 1382.54C1517.27 1381.65 1513.42 1378.58 1511.57 1372.51C1509.49 1365.7 1516.59 1355.29 1527.58 1356.77C1530.06 1357.1 1532.38 1358.7 1535.09 1359.94Z" fill="#C7A96A"/>
<path d="M1379.2 1271.01C1389.68 1269.52 1395.43 1272.75 1397.26 1280.8C1399.25 1289.51 1391.28 1297.87 1382.45 1296.13C1379.77 1295.61 1376.81 1294.91 1374.72 1293.31C1365.62 1286.32 1369.13 1273.8 1379.2 1271.01Z" fill="#C7A96A"/>
<path d="M1048.28 1289.54C1043.32 1280.97 1049.83 1272.6 1056.38 1270.87C1065.16 1268.55 1072.87 1273.12 1074.6 1282.04C1076.06 1289.61 1067.76 1297.43 1059.66 1296.25C1055.04 1295.57 1051.03 1294.04 1048.28 1289.54Z" fill="#C7A96A"/>
<path d="M956.112 1279.06C963.716 1279.06 971.321 1279.06 979.397 1279.06C979.397 1290.14 979.397 1300.88 979.397 1312.53C994.727 1301.75 1009.54 1298.2 1024.25 1312.33C1024.27 1312.75 1023.99 1313.02 1023.64 1312.96C1011.48 1303.14 999.046 1302.41 986.084 1310.47C983.941 1311.81 981.988 1313.45 979.148 1315.53C978.656 1312.63 978.106 1310.75 978.058 1308.85C977.93 1303.68 978.015 1298.52 978.014 1293.35C978.014 1279.93 978.013 1279.93 964.448 1280C958.109 1280.03 957.997 1280.12 957.994 1286.46C957.983 1312.95 957.99 1339.44 957.99 1365.94C957.99 1380.24 957.99 1380.1 972.327 1380.1C976.702 1380.11 978.169 1378.63 978.089 1374.29C977.87 1362.46 977.707 1350.62 978.194 1338.81C978.344 1335.15 980.648 1331.58 982.107 1328.13C982.249 1328.29 982.543 1328.59 982.543 1328.59C981.503 1333.23 979.717 1337.85 979.565 1342.52C979.149 1355.29 979.422 1368.08 979.422 1382.05C971.391 1381.56 963.896 1381.11 956.274 1379.98C956.135 1345.88 956.123 1312.47 956.112 1279.06Z" fill="#B3A176"/>
<path d="M1068.54 1381.8C1062.01 1381.87 1055.92 1381.87 1049.5 1381.87C1049.5 1355.77 1049.5 1330.42 1049.5 1304.72C1057.04 1304.72 1064.42 1304.72 1072.08 1304.72C1072.21 1306.08 1072.4 1307.2 1072.4 1308.32C1072.42 1331.29 1072.4 1354.25 1072.43 1377.22C1072.43 1379.68 1072.58 1382.08 1068.54 1381.8ZM1063.38 1380.02C1070.41 1380 1070.97 1379.49 1070.98 1372.33C1071.02 1353.35 1071.03 1334.37 1070.94 1315.4C1070.93 1313.11 1070.46 1310.77 1069.84 1308.55C1069.6 1307.69 1068.46 1306.64 1067.59 1306.49C1065.36 1306.1 1063.05 1306.19 1060.78 1306.03C1052.83 1305.48 1050.98 1307.18 1050.98 1315.12C1050.98 1332.93 1050.94 1350.75 1051 1368.56C1051.04 1381.48 1049.44 1379.91 1063.38 1380.02Z" fill="#B3A176"/>
<path d="M1025.51 1313.44C1027.8 1318.44 1031.49 1323.27 1032.1 1328.47C1033.39 1339.47 1033.13 1350.66 1033.38 1361.78C1033.52 1368.22 1033.4 1374.68 1033.4 1381.39C1025.18 1381.39 1017.59 1381.39 1009.47 1381.39C1009.37 1379.71 1009.19 1378.12 1009.19 1376.54C1009.16 1364.88 1008.84 1353.21 1009.25 1341.57C1009.77 1326.85 1000.67 1320.05 985.747 1325.24C985.254 1325.27 984.99 1324.99 985.18 1324.67C990.547 1320.07 996.421 1321.49 1001.81 1323.13C1006.6 1324.57 1009.94 1328.14 1010.07 1333.81C1010.3 1344.1 1010.84 1354.38 1010.94 1364.67C1011.09 1380.38 1010.98 1380.26 1026.52 1380.1C1030.81 1380.05 1032.05 1378.16 1032.03 1374.35C1031.97 1364.2 1032.05 1354.05 1031.99 1343.9C1031.96 1340.25 1032.27 1336.45 1031.36 1333C1029.65 1326.56 1027.15 1320.33 1025.12 1313.87C1025.25 1313.73 1025.51 1313.44 1025.51 1313.44Z" fill="#B3A176"/>
<path d="M311.556 1125.59C307.116 1126.17 304.552 1123.45 303.706 1120.45C303.094 1118.28 304.239 1114.32 305.96 1113.14C307.948 1111.77 311.822 1111.64 314.183 1112.63C319.559 1114.88 318.263 1121.63 311.556 1125.59Z" fill="#EDF1F1"/>
<path d="M496.327 1306.07C496.303 1330.38 496.278 1354.7 496.171 1379.72C496.047 1380.62 496.004 1380.8 495.962 1380.98C495.315 1379.65 494.116 1378.32 494.106 1376.99C493.984 1359.85 493.903 1342.71 494.099 1325.58C494.176 1318.9 494.973 1312.23 495.758 1305.56C496.159 1305.73 496.243 1305.9 496.327 1306.07Z" fill="#131A17"/>
<path d="M955.806 1279.34C956.124 1312.47 956.135 1345.88 956.053 1379.63C955.425 1379.21 954.422 1378.45 954.425 1377.69C954.551 1346.3 954.762 1314.91 954.995 1283.52C955.005 1282.22 955.325 1280.92 955.806 1279.34Z" fill="#131A17"/>
<path d="M1371.78 1305.43C1372.1 1329.78 1372.12 1354.39 1372.05 1379.46C1371.38 1379.26 1370.3 1378.61 1370.31 1377.97C1370.47 1355.85 1370.72 1333.73 1370.99 1311.61C1371.02 1309.63 1371.31 1307.67 1371.78 1305.43Z" fill="#131A17"/>
<path d="M984.567 1326.52C984.06 1327.11 983.552 1327.7 982.794 1328.44C982.543 1328.59 982.249 1328.29 982.177 1327.83C982.732 1326.9 983.358 1326.44 984.128 1326.12C984.27 1326.26 984.567 1326.52 984.567 1326.52Z" fill="#B3A176"/>
<path d="M1024.42 1312.62C1024.85 1312.62 1025.09 1312.8 1025.4 1313.24C1025.51 1313.44 1025.25 1313.73 1024.92 1313.75C1024.32 1313.56 1024.13 1313.31 1023.99 1313.02C1023.99 1313.02 1024.27 1312.75 1024.42 1312.62Z" fill="#B3A176"/>
<path d="M985.381 1325.41C985.408 1325.86 985.23 1326.11 984.771 1326.41C984.568 1326.52 984.27 1326.26 984.255 1325.92C984.444 1325.32 984.694 1325.13 984.99 1324.99C984.99 1324.99 985.254 1325.27 985.381 1325.41Z" fill="#B3A176"/>
<path d="M496.496 1305.94C496.243 1305.9 496.159 1305.73 496.015 1305.29C496.134 1304.99 496.313 1304.96 496.755 1305C496.959 1305.35 496.841 1305.6 496.496 1305.94Z" fill="#7E7860"/>
<path d="M496.193 1381.05C496.004 1380.8 496.047 1380.62 496.21 1380.19C496.607 1380.12 496.787 1380.36 496.891 1380.91C496.909 1381.15 496.424 1381.13 496.193 1381.05Z" fill="#7E7860"/>
<path d="M565.008 1313C565.327 1314.27 565.29 1315.8 566.003 1316.78C571.186 1323.92 571.387 1332.39 571.856 1340.52C572.497 1351.65 571.925 1362.84 572.06 1374C572.114 1378.45 570.488 1380.47 565.852 1380.07C562.545 1379.78 559.184 1379.87 555.861 1380.05C552.117 1380.25 550.906 1378.55 550.942 1374.97C551.062 1363.14 551.003 1351.31 550.977 1339.48C550.946 1325.13 538.922 1317.14 525.98 1323.42C520.435 1326.11 518.193 1331.99 518.082 1338.07C517.861 1350.07 517.847 1362.07 518.103 1374.06C518.202 1378.69 516.625 1380.45 512.038 1380.07C508.562 1379.78 505 1380.32 501.568 1379.84C500.247 1379.66 498.161 1377.66 498.15 1376.48C497.944 1354.49 497.94 1332.49 498.144 1310.5C498.157 1309.12 500.01 1306.94 501.398 1306.56C504.051 1305.83 506.987 1306.03 509.806 1306.01C518.383 1305.97 518.383 1306 517.618 1315.31C519.52 1314.43 521.138 1313.99 522.367 1313.05C529.007 1307.96 536.244 1304.95 544.811 1304.91C552.567 1304.87 558.041 1309.7 564.653 1312.95C565.005 1312.98 565 1313 565.008 1313Z" fill="#D0AC66"/>
<path d="M985.181 1324.67C984.694 1325.13 984.444 1325.32 984.113 1325.78C983.359 1326.44 982.732 1326.9 982.036 1327.67C980.648 1331.58 978.345 1335.15 978.194 1338.81C977.708 1350.62 977.87 1362.46 978.089 1374.29C978.17 1378.63 976.703 1380.11 972.328 1380.1C957.99 1380.1 957.99 1380.24 957.99 1365.94C957.99 1339.44 957.984 1312.95 957.995 1286.46C957.997 1280.12 958.11 1280.03 964.448 1280C978.014 1279.93 978.014 1279.93 978.015 1293.35C978.015 1298.52 977.93 1303.68 978.059 1308.85C978.106 1310.75 978.657 1312.63 979.148 1315.53C981.989 1313.45 983.941 1311.81 986.084 1310.47C999.046 1302.41 1011.48 1303.14 1023.64 1312.96C1024.13 1313.31 1024.32 1313.56 1024.78 1313.89C1027.15 1320.33 1029.65 1326.56 1031.36 1333C1032.27 1336.45 1031.96 1340.25 1031.99 1343.9C1032.05 1354.05 1031.97 1364.2 1032.03 1374.35C1032.05 1378.16 1030.81 1380.05 1026.52 1380.1C1010.98 1380.26 1011.09 1380.38 1010.94 1364.67C1010.84 1354.38 1010.3 1344.1 1010.07 1333.81C1009.94 1328.14 1006.6 1324.57 1001.81 1323.13C996.421 1321.49 990.547 1320.07 985.181 1324.67Z" fill="#CFAC66"/>
<path d="M1062.9 1380.02C1049.44 1379.91 1051.04 1381.48 1051 1368.56C1050.94 1350.75 1050.98 1332.93 1050.98 1315.12C1050.98 1307.18 1052.83 1305.48 1060.78 1306.03C1063.05 1306.19 1065.36 1306.1 1067.59 1306.49C1068.46 1306.64 1069.6 1307.69 1069.84 1308.55C1070.46 1310.77 1070.93 1313.11 1070.94 1315.4C1071.03 1334.37 1071.02 1353.35 1070.98 1372.33C1070.97 1379.49 1070.41 1380 1062.9 1380.02Z" fill="#CFAC66"/>
<path d="M764.243 569.072C785.021 571.553 797.528 585.229 797.35 606.902C797.275 616.071 796.581 624.844 791.714 633.082C785.559 643.496 776.345 649.397 764.873 650.412C752.719 651.487 740.396 650.653 727.713 650.653C727.713 624.05 727.713 596.674 727.713 568.875C739.648 568.875 751.745 568.875 764.243 569.072ZM774.305 608.554C774.33 591.785 764.902 583.679 749.544 587.395C749.544 602.604 749.544 617.84 749.544 633.04C761.294 634.619 770.187 630.542 772.254 622.088C773.261 617.97 773.642 613.699 774.305 608.554Z" fill="#F8FAFA"/>
<path d="M644.267 600.237C642.083 606.185 638.9 610.906 633.624 613.996C631.21 615.41 631.912 617.066 633.214 618.965C639.57 628.23 645.841 637.552 652.13 646.862C653.035 648.201 653.873 649.585 655.195 651.658C646.951 651.658 639.367 651.92 631.828 651.453C630.184 651.351 628.307 648.886 627.215 647.095C622.815 639.882 618.594 632.555 614.487 625.171C612.653 621.872 610.28 620.819 606.385 622.291C606.385 631.8 606.385 641.389 606.385 651.318C598.944 651.318 591.915 651.318 584.591 651.318C584.591 623.87 584.591 596.616 584.591 568.645C591.466 568.645 598.414 568.372 605.33 568.717C613.052 569.103 620.925 569.247 628.412 570.927C642.324 574.049 647.758 587.567 644.267 600.237ZM611.054 585.626C609.482 585.727 607.909 585.828 606.607 585.912C606.607 592.443 606.607 598.35 606.607 604.197C616.701 605.588 621.889 602.801 622.344 595.966C622.828 588.706 619.91 585.821 611.054 585.626Z" fill="#F8FAF9"/>
<path d="M977.572 594.08C983.882 613.224 990.024 632.009 996.437 651.619C988.599 651.619 981.204 651.724 973.82 651.48C972.936 651.451 971.743 649.655 971.331 648.459C970.05 644.735 969.075 640.906 967.85 636.66C959.797 636.66 951.667 636.55 943.548 636.789C942.43 636.822 940.809 638.392 940.374 639.595C938.986 643.437 938.045 647.441 936.907 651.47C928.764 651.47 920.829 651.47 912.17 651.47C915.53 641.491 918.811 631.919 921.975 622.309C927.387 605.866 932.824 589.43 938.01 572.915C939.032 569.66 940.391 568.424 943.878 568.566C951.027 568.856 958.199 568.764 965.356 568.599C968.083 568.536 969.518 569.251 970.351 572.059C972.51 579.337 975.029 586.508 977.572 594.08ZM961.332 611.208C959.221 602.508 957.111 593.809 955.001 585.109C954.663 585.104 954.324 585.099 953.986 585.094C951.274 596.157 948.561 607.22 945.815 618.419C952.044 618.419 957.452 618.419 963.286 618.419C962.646 616.047 962.103 614.031 961.332 611.208Z" fill="#F8FAF9"/>
<path d="M497.236 641.524C498.295 644.871 499.255 647.827 500.485 651.613C492.658 651.613 485.255 651.718 477.864 651.474C476.988 651.445 475.814 649.633 475.401 648.434C474.119 644.705 473.137 640.873 471.912 636.646C463.802 636.646 455.665 636.534 447.539 636.779C446.445 636.811 444.88 638.447 444.437 639.668C443.041 643.513 442.075 647.514 440.955 651.411C432.739 651.411 424.811 651.411 416.255 651.411C420.36 639.169 424.37 627.359 428.277 615.515C432.984 601.247 437.723 586.987 442.168 572.637C443.149 569.471 444.559 568.482 447.749 568.583C454.74 568.805 461.751 568.838 468.739 568.574C472.153 568.445 473.574 569.515 474.65 572.86C481.988 595.668 489.608 618.387 497.236 641.524ZM461.358 593.898C460.521 590.966 459.684 588.034 458.421 583.612C455.34 596.154 452.624 607.212 449.878 618.388C456.135 618.388 461.534 618.388 467.339 618.388C465.284 610.237 463.329 602.483 461.358 593.898Z" fill="#F8FAF9"/>
<path d="M673.094 568.647C686.24 568.646 698.9 568.646 711.932 568.646C711.932 574.499 711.932 580.227 711.932 586.562C703.265 586.562 694.548 586.562 685.573 586.562C685.573 591.065 685.573 594.974 685.573 599.474C693.717 599.474 701.777 599.474 710.028 599.474C710.028 605.799 710.028 611.534 710.028 617.682C701.82 617.682 693.884 617.682 685.631 617.682C685.631 622.993 685.631 627.898 685.631 633.406C694.336 633.406 703.062 633.406 712.05 633.406C712.05 639.739 712.05 645.474 712.05 651.436C695.871 651.436 679.947 651.436 663.655 651.436C663.655 623.931 663.655 596.556 663.655 568.647C666.688 568.647 669.647 568.647 673.094 568.647Z" fill="#F8FAF9"/>
<path d="M560.729 569.586C572.177 572.419 572.192 572.425 568.38 582.797C567.427 585.386 566.342 587.927 565.4 590.285C560.043 588.939 555.056 587.97 550.26 586.413C543.538 584.232 534.401 588.863 531.993 595.448C528.356 605.398 527.617 615.444 532.26 625.316C535.578 632.367 543.599 635.953 551.356 634.11C556.778 632.822 562.191 631.5 567.939 630.114C567.939 635.783 567.939 641.68 567.939 647.739C553.967 655.685 527.661 654.615 516.08 641.889C504.614 629.289 502.859 600.582 512.844 584.73C522.696 569.088 542.04 564.504 560.729 569.586Z" fill="#F8FAF9"/>
<path d="M866.293 649.47C866.283 628.401 866.283 607.787 866.283 586.759C859.609 586.759 853.347 586.759 846.685 586.759C846.685 580.646 846.685 574.934 846.685 568.929C867.383 568.929 888.114 568.929 909.068 568.929C909.068 574.719 909.068 580.318 909.068 586.533C902.287 586.533 895.577 586.533 888.306 586.533C888.306 608.524 888.306 629.91 888.306 651.645C881.433 651.645 875.13 651.709 868.831 651.568C867.977 651.549 867.145 650.498 866.293 649.47Z" fill="#F8FAFA"/>
<path d="M936.239 491C936.237 483.845 936.237 477.189 936.237 470.533C935.972 470.435 935.706 470.337 935.44 470.239C933.859 473.47 932.176 476.656 930.714 479.94C923.527 496.091 916.444 512.289 909.146 528.39C908.646 529.492 906.629 530.602 905.412 530.506C903.919 530.388 901.809 529.352 901.21 528.111C897.681 520.809 894.539 513.32 891.22 505.915C886.07 494.422 880.888 482.943 875.696 471.469C875.385 470.781 874.862 470.188 873.471 469.808C873.471 489.958 873.471 510.109 873.471 530.469C870.543 530.469 868.264 530.469 865.613 530.469C865.613 503.991 865.613 477.604 865.609 451.216C873.346 449.771 873.656 449.739 876.766 456.575C886.163 477.23 895.396 497.96 904.949 519.232C905.751 518.015 906.553 517.096 907.027 516.032C913.356 501.83 919.65 487.611 925.93 473.386C928.201 468.241 930.467 463.093 932.637 457.905C935.835 450.259 936.375 449.921 945.039 451.117C945.039 477.507 945.039 503.921 945.039 530.489C942.151 530.489 939.539 530.489 936.24 530.489C936.24 517.362 936.24 504.431 936.239 491Z" fill="#F0F4F5"/>
<path d="M711.014 468.889C721.453 487.876 716.4 514.684 696.105 526.65C703.032 533.093 709.841 539.426 716.841 545.937C709.014 549.143 703.61 544.817 699.274 539.835C693.315 532.989 687.502 530.255 677.553 531.204C658.23 533.048 640.601 520.54 636.83 499.192C633.193 478.607 640.573 457.879 663.538 450.491C682.115 444.515 702.928 452.502 711.014 468.889ZM644.339 492.382C644.664 505.367 653.397 521.231 671.031 524C684.361 526.093 699.5 517.878 704.261 506.96C707.327 499.928 707.84 492.875 707.311 485.447C706.499 474.018 701.474 465.153 691.38 459.73C680.334 453.796 669.134 454.106 658.543 461.009C647.605 468.139 644.176 479 644.339 492.382Z" fill="#EEF2F4"/>
<path d="M843.598 408.701C842.079 409.04 840.935 409.729 839.873 409.619C833.911 409 833.743 412.469 834.654 417.126C835.637 417.285 836.719 417.56 837.811 417.618C844.833 417.99 849.197 421.903 849.329 428.007C849.475 434.7 845.194 439.23 837.901 439.685C833.612 439.952 829.293 439.733 824.521 439.733C824.419 437.643 824.334 435.912 824.221 433.629C828.414 433.629 832.211 433.556 836.003 433.651C839.29 433.733 842.005 433.349 842.288 429.16C842.585 424.758 839.864 423.278 836.272 422.792C834.18 422.509 832.018 422.741 829.46 422.741C829.46 418.711 829.46 415.109 829.46 411.486C824.071 409.927 818.799 409.067 814.115 406.925C799.122 400.067 792.002 387.925 791.191 371.581C790.557 358.821 793.943 347.642 802.98 338.515C816.293 325.069 840.726 323.941 855.871 335.431C861.705 339.857 865.091 345.569 867.878 352.053C860.047 353.529 859.778 353.517 856.436 348.243C849.148 336.741 837.114 333.104 825.422 335.023C811.954 337.234 803.574 345.881 800.346 359.214C796.443 375.333 801.966 391.305 814.425 399.009C827.321 406.984 847.627 404.498 855.667 390.619C858.742 385.31 862.553 384.947 867.995 386.108C863.187 397.203 855.658 405.076 843.598 408.701Z" fill="#EDF2F2"/>
<path d="M533.749 499.936C530.92 515.921 519.22 527.139 502.906 529.706C500.962 530.012 499.029 530.634 497.086 530.654C487.439 530.753 477.789 530.699 467.713 530.699C467.713 503.715 467.713 477.002 467.713 449.62C481.864 450.436 496.31 447.496 510.355 452.511C526.005 458.099 532.869 469.902 534.268 485.133C534.705 489.892 534.085 494.748 533.749 499.936ZM475.359 477.5C475.359 492.739 475.359 507.978 475.359 523.632C483.046 523.632 490.007 523.776 496.959 523.593C504.477 523.395 511.239 520.834 516.736 515.664C526.415 506.56 527.551 494.838 525.736 482.669C524.547 474.7 521.31 467.622 514.327 462.563C502.225 453.797 488.69 457.616 475.359 456.607C475.359 463.862 475.359 470.181 475.359 477.5Z" fill="#EEF2F3"/>
<path d="M689.74 331.303C705.77 339.474 713.783 354.967 712.18 373.12C710.673 390.174 701.844 402.881 685.291 408.511C659.611 417.246 632.51 399.174 632.135 371.391C631.976 359.551 634.53 348.926 642.413 340.183C653.774 327.581 673.753 324.004 689.74 331.303ZM657.076 338.316C644.175 345.65 639.816 357.396 640.379 371.421C641.294 394.198 660.42 408.361 681.649 401.919C700.231 396.281 706.644 377.946 702.799 359.941C698.31 338.928 677.892 329.345 657.076 338.316Z" fill="#EEF2F4"/>
<path d="M823.966 651.66C820.008 651.66 816.532 651.66 812.671 651.66C812.671 623.95 812.671 596.599 812.671 568.947C819.686 568.947 826.752 568.947 834.044 568.947C834.044 596.448 834.044 623.823 834.044 651.66C830.685 651.66 827.566 651.66 823.966 651.66Z" fill="#F8FAFA"/>
<path d="M763.006 381.906C768.456 391.149 773.724 400.072 779.093 409.167C770.358 410.412 770.385 410.395 766.214 403.422C761.285 395.183 756.123 387.076 751.453 378.694C750.044 376.166 748.539 375.578 745.989 375.694C742.354 375.859 738.706 375.736 734.474 375.736C734.474 387.092 734.474 398.142 734.474 409.445C731.618 409.445 729.351 409.445 726.671 409.445C726.671 382.712 726.671 355.988 726.671 328.172C738.65 328.718 750.791 328.508 762.699 330.071C771.25 331.194 778.146 340.994 778.319 349.189C778.608 362.838 774.16 370.21 763.482 373.78C762.083 374.248 760.685 374.714 758.972 375.287C760.28 377.426 761.552 379.506 763.006 381.906ZM734.312 358.432C734.312 361.706 734.312 364.979 734.312 367.975C735.27 368.352 735.57 368.571 735.871 368.573C742.201 368.619 748.533 368.673 754.864 368.658C762.332 368.64 769.336 362.589 770.205 355.055C771.016 348.022 768.857 338.264 760.126 336.898C751.76 335.59 743.159 335.785 734.313 335.3C734.313 343.497 734.313 350.474 734.312 358.432Z" fill="#EEF2F4"/>
<path d="M942.167 409.722C940.258 408.563 938.047 407.718 937.388 406.199C935.237 401.247 933.654 396.049 931.771 390.718C920.164 390.718 908.701 390.641 897.242 390.828C896.005 390.848 894.217 392.127 893.678 393.285C892.087 396.707 890.944 400.344 889.717 403.929C887.484 410.451 886.735 410.846 879.28 408.864C884.574 394.515 889.829 380.183 895.154 365.876C898.716 356.303 902.351 346.756 906.003 337.217C908.953 329.512 908.986 329.524 917.884 329.744C927.577 356.082 937.338 382.604 947.235 409.497C945.2 409.598 943.888 409.663 942.167 409.722ZM921.31 362.238C918.756 355.223 916.202 348.209 913.158 339.848C907.545 355.143 902.449 369.026 897.176 383.394C908.042 383.394 918.238 383.394 929.055 383.394C926.492 376.479 923.995 369.741 921.31 362.238Z" fill="#EEF2F4"/>
<path d="M492.027 390.72C483.792 389.263 478.436 391.429 477.174 400.029C476.987 401.304 476.32 402.507 475.894 403.751C473.628 410.377 473.21 410.6 465.362 409.046C469.385 397.888 473.3 386.749 477.417 375.685C482.191 362.854 487.114 350.078 492.025 337.298C495.006 329.541 495.052 329.559 503.934 329.737C513.624 356.064 523.389 382.594 533.212 409.282C524.608 410.229 524.646 410.217 522.287 403.247C520.912 399.183 519.393 395.167 517.791 390.72C509.444 390.72 500.983 390.72 492.027 390.72ZM507.346 362.219C504.793 355.209 502.241 348.198 499.2 339.843C493.567 355.231 488.47 369.159 483.212 383.525C494.229 383.525 504.341 383.525 515.144 383.525C512.549 376.498 510.053 369.738 507.346 362.219Z" fill="#EEF2F3"/>
<path d="M781.267 502.681C781.268 484.906 781.268 467.597 781.268 449.964C783.984 449.964 786.396 449.964 789.322 449.964C789.322 461.949 789.571 473.907 789.241 485.849C788.991 494.902 788.906 504.115 787.142 512.936C784.143 527.942 766.426 533.223 754.955 531.361C743.973 529.578 735.476 524.075 732.019 512.862C730.967 509.452 730.381 505.765 730.346 502.198C730.178 484.893 730.27 467.587 730.27 449.966C732.996 449.966 735.406 449.966 738.322 449.966C738.322 465.801 738.178 481.584 738.409 497.362C738.478 502.091 739.117 506.932 740.329 511.5C742.792 520.792 753.327 525.031 762.399 524.136C775.272 522.866 779.929 514.59 781.267 502.681Z" fill="#F0F4F5"/>
<path d="M549.278 489C549.279 475.714 549.279 462.928 549.279 449.886C563.713 449.886 577.659 449.886 591.981 449.886C591.981 451.886 591.981 453.944 591.981 456.609C580.633 456.609 569.25 456.609 557.618 456.609C557.618 466.779 557.618 476.348 557.618 486.361C567.734 486.361 577.658 486.361 587.967 486.361C587.967 488.853 587.967 490.912 587.967 493.577C578.03 493.577 567.981 493.577 557.655 493.577C557.655 503.738 557.655 513.304 557.655 523.317C569.034 523.317 580.288 523.317 591.945 523.317C591.945 525.936 591.945 528.119 591.945 530.496C577.818 530.496 563.889 530.496 549.277 530.496C549.277 516.694 549.277 503.097 549.278 489Z" fill="#EEF2F3"/>
<path d="M844.26 493.694C834.532 493.708 825.239 493.708 815.642 493.708C815.642 503.694 815.642 513.257 815.642 523.405C827.041 523.405 838.422 523.405 850.055 523.405C850.055 526.055 850.055 528.123 850.055 530.452C835.925 530.452 822.009 530.452 807.668 530.452C807.668 503.703 807.668 477 807.668 449.962C821.608 449.962 835.677 449.962 850.035 449.962C850.035 452.04 850.035 454.107 850.035 456.734C838.48 456.734 827.088 456.734 815.598 456.734C815.598 466.867 815.598 476.439 815.598 486.434C825.78 486.434 835.702 486.434 846.989 486.434C846.073 489.328 845.385 491.505 844.26 493.694Z" fill="#EEF2F4"/>
<path d="M578.291 344.008C578.291 338.727 578.291 333.944 578.291 328.911C593.148 328.911 607.539 328.911 622.038 328.911C622.038 331.215 622.038 333.286 622.038 335.745C610.15 335.745 598.565 335.745 586.661 335.745C586.661 345.684 586.661 355.238 586.661 365.393C596.673 365.393 606.715 365.393 617.046 365.393C617.046 368.05 617.046 370.114 617.046 372.735C606.859 372.735 596.81 372.735 586.386 372.735C586.386 385.204 586.386 397.124 586.386 409.381C583.632 409.381 581.261 409.381 578.291 409.381C578.291 387.66 578.291 366.083 578.291 344.008Z" fill="#EEF2F4"/>
</g>
<defs>
<clipPath id="clip0_267_2">
<rect width="1824" height="1394" fill="white"/>
</clipPath>
</defs>
</svg>
