<svg width="160" height="160" viewBox="0 0 160 160" fill="none" xmlns="http://www.w3.org/2000/svg">
<rect width="160" height="160" rx="25" fill="#118406"/>
<path d="M31 104V97.4375C31 94.4514 32.5278 92.0208 35.5833 90.1458C38.6389 88.2708 42.6667 87.3333 47.6667 87.3333C48.5694 87.3333 49.4375 87.3507 50.2708 87.3854C51.1042 87.4201 51.9028 87.5069 52.6667 87.6458C51.6944 89.1042 50.9653 90.6319 50.4792 92.2292C49.9931 93.8264 49.75 95.4931 49.75 97.2292V104H31ZM56 104V97.2292C56 95.0069 56.6076 92.9757 57.8229 91.1354C59.0382 89.2951 60.7569 87.6806 62.9792 86.2917C65.2014 84.9028 67.8576 83.8611 70.9479 83.1667C74.0382 82.4722 77.3889 82.125 81 82.125C84.6806 82.125 88.066 82.4722 91.1562 83.1667C94.2465 83.8611 96.9028 84.9028 99.125 86.2917C101.347 87.6806 103.049 89.2951 104.229 91.1354C105.41 92.9757 106 95.0069 106 97.2292V104H56ZM112.25 104V97.2292C112.25 95.4236 112.024 93.7222 111.573 92.125C111.122 90.5278 110.444 89.0347 109.542 87.6458C110.306 87.5069 111.087 87.4201 111.885 87.3854C112.684 87.3507 113.5 87.3333 114.333 87.3333C119.333 87.3333 123.361 88.2535 126.417 90.0938C129.472 91.934 131 94.3819 131 97.4375V104H112.25ZM64.8542 95.6667H97.25C96.5556 94.2778 94.6285 93.0625 91.4688 92.0208C88.309 90.9792 84.8194 90.4583 81 90.4583C77.1806 90.4583 73.691 90.9792 70.5312 92.0208C67.3715 93.0625 65.4792 94.2778 64.8542 95.6667ZM47.6667 83.1667C45.375 83.1667 43.4132 82.3507 41.7812 80.7188C40.1493 79.0868 39.3333 77.125 39.3333 74.8333C39.3333 72.4722 40.1493 70.4931 41.7812 68.8958C43.4132 67.2986 45.375 66.5 47.6667 66.5C50.0278 66.5 52.0069 67.2986 53.6042 68.8958C55.2014 70.4931 56 72.4722 56 74.8333C56 77.125 55.2014 79.0868 53.6042 80.7188C52.0069 82.3507 50.0278 83.1667 47.6667 83.1667ZM114.333 83.1667C112.042 83.1667 110.08 82.3507 108.448 80.7188C106.816 79.0868 106 77.125 106 74.8333C106 72.4722 106.816 70.4931 108.448 68.8958C110.08 67.2986 112.042 66.5 114.333 66.5C116.694 66.5 118.674 67.2986 120.271 68.8958C121.868 70.4931 122.667 72.4722 122.667 74.8333C122.667 77.125 121.868 79.0868 120.271 80.7188C118.674 82.3507 116.694 83.1667 114.333 83.1667ZM81 79C77.5278 79 74.5764 77.7847 72.1458 75.3542C69.7153 72.9236 68.5 69.9722 68.5 66.5C68.5 62.9583 69.7153 59.9896 72.1458 57.5938C74.5764 55.1979 77.5278 54 81 54C84.5417 54 87.5104 55.1979 89.9062 57.5938C92.3021 59.9896 93.5 62.9583 93.5 66.5C93.5 69.9722 92.3021 72.9236 89.9062 75.3542C87.5104 77.7847 84.5417 79 81 79ZM81 70.6667C82.1806 70.6667 83.1701 70.2674 83.9688 69.4688C84.7674 68.6701 85.1667 67.6806 85.1667 66.5C85.1667 65.3194 84.7674 64.3299 83.9688 63.5312C83.1701 62.7326 82.1806 62.3333 81 62.3333C79.8194 62.3333 78.8299 62.7326 78.0312 63.5312C77.2326 64.3299 76.8333 65.3194 76.8333 66.5C76.8333 67.6806 77.2326 68.6701 78.0312 69.4688C78.8299 70.2674 79.8194 70.6667 81 70.6667Z" fill="white"/>
</svg>
