<svg width="160" height="160" viewBox="0 0 160 160" fill="none" xmlns="http://www.w3.org/2000/svg">
<rect width="160" height="160" rx="25" fill="#0184FF"/>
<path d="M35.1667 116.5V108.167H126.833V116.5H35.1667ZM47.6667 104C45.375 104 43.4132 103.184 41.7813 101.552C40.1493 99.9201 39.3334 97.9583 39.3334 95.6667V49.8333C39.3334 47.5417 40.1493 45.5799 41.7813 43.9479C43.4132 42.316 45.375 41.5 47.6667 41.5H114.333C116.625 41.5 118.587 42.316 120.219 43.9479C121.851 45.5799 122.667 47.5417 122.667 49.8333V95.6667C122.667 97.9583 121.851 99.9201 120.219 101.552C118.587 103.184 116.625 104 114.333 104H47.6667ZM47.6667 95.6667H114.333V49.8333H47.6667V95.6667Z" fill="white"/>
</svg>
