<svg width="160" height="160" viewBox="0 0 160 160" fill="none" xmlns="http://www.w3.org/2000/svg">
<rect width="160" height="160" rx="25" fill="#FF8000"/>
<path d="M48.6666 116.5C46.375 116.5 44.4132 115.684 42.7812 114.052C41.1493 112.42 40.3333 110.458 40.3333 108.167V62.3335C40.3333 60.0418 41.1493 58.08 42.7812 56.4481C44.4132 54.8161 46.375 54.0002 48.6666 54.0002H65.3333V45.6668C65.3333 43.3752 66.1493 41.4134 67.7812 39.7814C69.4132 38.1495 71.375 37.3335 73.6666 37.3335H90.3333C92.625 37.3335 94.5868 38.1495 96.2187 39.7814C97.8507 41.4134 98.6666 43.3752 98.6666 45.6668V54.0002H115.333C117.625 54.0002 119.587 54.8161 121.219 56.4481C122.851 58.08 123.667 60.0418 123.667 62.3335V80.146C122.417 79.2432 121.097 78.462 119.708 77.8022C118.319 77.1425 116.861 76.5696 115.333 76.0835V62.3335H48.6666V108.167H78.1458C78.3541 109.625 78.6666 111.049 79.0833 112.438C79.5 113.827 80.0208 115.181 80.6458 116.5H48.6666ZM73.6666 54.0002H90.3333V45.6668H73.6666V54.0002ZM107 124.833C101.236 124.833 96.3229 122.802 92.2604 118.74C88.1979 114.677 86.1666 109.764 86.1666 104C86.1666 98.2363 88.1979 93.3231 92.2604 89.2606C96.3229 85.1981 101.236 83.1668 107 83.1668C112.764 83.1668 117.677 85.1981 121.74 89.2606C125.802 93.3231 127.833 98.2363 127.833 104C127.833 109.764 125.802 114.677 121.74 118.74C117.677 122.802 112.764 124.833 107 124.833ZM109.083 103.167V91.5002H104.917V104.833L113.875 113.792L116.792 110.875L109.083 103.167Z" fill="white"/>
</svg>
