<svg width="32" height="31" viewBox="0 0 32 31" fill="none" xmlns="http://www.w3.org/2000/svg">
<path d="M19.9009 21.6799L21.6799 19.9009L16.9782 15.1991V9.35372H14.4367V16.2157L19.9009 21.6799ZM15.7074 28.4149C13.9496 28.4149 12.2976 28.0813 10.7515 27.4142C9.20547 26.747 7.8606 25.8416 6.71693 24.698C5.57326 23.5543 4.66785 22.2094 4.00071 20.6634C3.33357 19.1173 3 17.4653 3 15.7074C3 13.9496 3.33357 12.2976 4.00071 10.7515C4.66785 9.20547 5.57326 7.8606 6.71693 6.71693C7.8606 5.57326 9.20547 4.66785 10.7515 4.00071C12.2976 3.33357 13.9496 3 15.7074 3C17.4653 3 19.1173 3.33357 20.6634 4.00071C22.2094 4.66785 23.5543 5.57326 24.698 6.71693C25.8416 7.8606 26.747 9.20547 27.4142 10.7515C28.0813 12.2976 28.4149 13.9496 28.4149 15.7074C28.4149 17.4653 28.0813 19.1173 27.4142 20.6634C26.747 22.2094 25.8416 23.5543 24.698 24.698C23.5543 25.8416 22.2094 26.747 20.6634 27.4142C19.1173 28.0813 17.4653 28.4149 15.7074 28.4149ZM15.7074 25.8734C18.5243 25.8734 20.9228 24.8833 22.903 22.903C24.8833 20.9228 25.8734 18.5243 25.8734 15.7074C25.8734 12.8906 24.8833 10.4921 22.903 8.51186C20.9228 6.53161 18.5243 5.54149 15.7074 5.54149C12.8906 5.54149 10.4921 6.53161 8.51186 8.51186C6.53161 10.4921 5.54149 12.8906 5.54149 15.7074C5.54149 18.5243 6.53161 20.9228 8.51186 22.903C10.4921 24.8833 12.8906 25.8734 15.7074 25.8734Z" fill="#FFC60A"/>
</svg>
