<svg width="24" height="24" viewBox="0 0 24 24" fill="none" xmlns="http://www.w3.org/2000/svg">
<path d="M4.58784 19.4163C4.05947 19.4163 3.60716 19.2282 3.2309 18.8519C2.85463 18.4757 2.6665 18.0234 2.6665 17.495V5.96699C2.6665 5.43862 2.85463 4.98631 3.2309 4.61005C3.60716 4.23378 4.05947 4.04565 4.58784 4.04565H19.9585C20.4869 4.04565 20.9392 4.23378 21.3154 4.61005C21.6917 4.98631 21.8798 5.43862 21.8798 5.96699V17.495C21.8798 18.0234 21.6917 18.4757 21.3154 18.8519C20.9392 19.2282 20.4869 19.4163 19.9585 19.4163H4.58784ZM12.2732 12.6917L4.58784 7.88832V17.495H19.9585V7.88832L12.2732 12.6917ZM12.2732 10.7703L19.9585 5.96699H4.58784L12.2732 10.7703ZM4.58784 7.88832V5.96699V17.495V7.88832Z" fill="#FFC60A"/>
</svg>
