<svg width="160" height="160" viewBox="0 0 160 160" fill="none" xmlns="http://www.w3.org/2000/svg">
<rect width="160" height="160" rx="25" fill="#8400FF"/>
<path d="M40.3333 116.5V108.167H77.8333V61.6043C76.0278 60.9793 74.4653 60.0071 73.1458 58.6877C71.8264 57.3682 70.8541 55.8057 70.2291 54.0002H57L69.5 83.1668C69.5 86.639 68.0764 89.5904 65.2291 92.021C62.3819 94.4515 58.9444 95.6668 54.9166 95.6668C50.8889 95.6668 47.4514 94.4515 44.6041 92.021C41.7569 89.5904 40.3333 86.639 40.3333 83.1668L52.8333 54.0002H44.5V45.6668H70.2291C71.0625 43.2363 72.5555 41.2397 74.7083 39.6772C76.8611 38.1147 79.2916 37.3335 82 37.3335C84.7083 37.3335 87.1389 38.1147 89.2916 39.6772C91.4444 41.2397 92.9375 43.2363 93.7708 45.6668H119.5V54.0002H111.167L123.667 83.1668C123.667 86.639 122.243 89.5904 119.396 92.021C116.549 94.4515 113.111 95.6668 109.083 95.6668C105.056 95.6668 101.618 94.4515 98.7708 92.021C95.9236 89.5904 94.5 86.639 94.5 83.1668L107 54.0002H93.7708C93.1458 55.8057 92.1736 57.3682 90.8541 58.6877C89.5347 60.0071 87.9722 60.9793 86.1666 61.6043V108.167H123.667V116.5H40.3333ZM101.271 83.1668H116.896L109.083 65.0418L101.271 83.1668ZM47.1041 83.1668H62.7291L54.9166 65.0418L47.1041 83.1668ZM82 54.0002C83.1805 54.0002 84.1701 53.6009 84.9687 52.8022C85.7673 52.0036 86.1666 51.0141 86.1666 49.8335C86.1666 48.6529 85.7673 47.6634 84.9687 46.8647C84.1701 46.0661 83.1805 45.6668 82 45.6668C80.8194 45.6668 79.8298 46.0661 79.0312 46.8647C78.2326 47.6634 77.8333 48.6529 77.8333 49.8335C77.8333 51.0141 78.2326 52.0036 79.0312 52.8022C79.8298 53.6009 80.8194 54.0002 82 54.0002Z" fill="white"/>
</svg>
