<svg width="50" height="50" viewBox="0 0 50 50" fill="none" xmlns="http://www.w3.org/2000/svg">
<path d="M40.833 10.7624V23.1247C40.833 28.2953 39.2968 32.9935 36.2158 37.2321C33.1637 41.4309 29.316 44.1158 24.667 45.3161C20.0177 44.1159 16.1705 41.431 13.1182 37.2321C10.0371 32.9935 8.5 28.2954 8.5 23.1247V10.7624L24.666 4.69987L40.833 10.7624ZM37.667 12.9352L37.3418 12.8131L24.8418 8.12565L24.667 8.06022L24.4912 8.12565L11.9912 12.8131L11.667 12.9352V23.1247C11.667 27.4263 12.8771 31.3454 15.2959 34.8669C17.7133 38.3862 20.7877 40.7523 24.5156 41.9352L24.667 41.9831L24.8184 41.9352C28.5461 40.7523 31.6198 38.386 34.0371 34.8669C36.4559 31.3454 37.667 27.4263 37.667 23.1247V12.9352Z" fill="url(#paint0_linear_75_175)" stroke="#CA9B00"/>
<defs>
<linearGradient id="paint0_linear_75_175" x1="24.6667" y1="4.16666" x2="24.6667" y2="45.8333" gradientUnits="userSpaceOnUse">
<stop stop-color="#FFC60A"/>
<stop offset="1" stop-color="#EBB503"/>
</linearGradient>
</defs>
</svg>
