<svg width="23" height="23" viewBox="0 0 23 23" fill="none" xmlns="http://www.w3.org/2000/svg">
<path d="M18.7065 20.1738C16.753 20.1738 14.8229 19.7375 12.9162 18.8649C11.0096 17.9923 9.27481 16.7555 7.71198 15.1544C6.14915 13.5532 4.94186 11.776 4.09012 9.82265C3.23837 7.8693 2.8125 5.89193 2.8125 3.89054C2.8125 3.60234 2.90627 3.36217 3.09381 3.17004C3.28135 2.9779 3.51577 2.88184 3.79708 2.88184H7.59477C7.81357 2.88184 8.00892 2.95789 8.18083 3.10999C8.35274 3.2621 8.45433 3.44222 8.48558 3.65037L9.09509 7.0127C9.12635 7.26888 9.11853 7.48503 9.07165 7.66115C9.02476 7.83728 8.93881 7.98938 8.81378 8.11747L6.53986 10.4711C6.85242 11.0635 7.2236 11.6359 7.65338 12.1883C8.08315 12.7407 8.55591 13.273 9.07165 13.7854C9.55612 14.2817 10.064 14.7421 10.5954 15.1664C11.1268 15.5907 11.6894 15.9789 12.2833 16.3312L14.4869 14.0736C14.6275 13.9295 14.8111 13.8214 15.0378 13.7494C15.2644 13.6773 15.4871 13.6573 15.7059 13.6893L18.9409 14.3618C19.1597 14.4258 19.3395 14.5419 19.4801 14.71C19.6208 14.8782 19.6911 15.0663 19.6911 15.2744V19.1651C19.6911 19.4533 19.5973 19.6935 19.4098 19.8856C19.2222 20.0778 18.9878 20.1738 18.7065 20.1738ZM5.64904 8.64584L7.19625 7.06074L6.79772 4.80317H4.71134C4.78948 5.45963 4.89888 6.10808 5.03954 6.74852C5.18019 7.38896 5.38336 8.0214 5.64904 8.64584ZM14.0415 17.2438C14.651 17.516 15.2722 17.7321 15.9051 17.8923C16.5381 18.0524 17.1749 18.1564 17.8157 18.2045V16.091L15.6121 15.6347L14.0415 17.2438Z" fill="#F5C024"/>
</svg>
