<svg width="47" height="47" viewBox="0 0 47 47" fill="none" xmlns="http://www.w3.org/2000/svg">
<circle cx="23.0628" cy="23.056" r="23.056" fill="#F5C024"/>
<path d="M30.6796 23.3294V31.0401C30.3615 31.3926 29.8715 31.7708 29.2096 32.1748C28.5563 32.5702 27.7311 32.9098 26.734 33.1935C25.7368 33.4771 24.5635 33.619 23.2139 33.619C21.9674 33.619 20.837 33.4213 19.8227 33.0258C18.8084 32.6218 17.9359 32.033 17.2052 31.2593C16.4831 30.4771 15.9244 29.5229 15.529 28.3968C15.1421 27.2622 14.9487 25.9642 14.9487 24.5028V23.4584C14.9487 21.9971 15.1464 20.699 15.5419 19.5644C15.9373 18.4297 16.4917 17.4755 17.2052 16.7019C17.9273 15.9196 18.774 15.3265 19.7453 14.9225C20.7253 14.5185 21.7998 14.3165 22.9689 14.3165C24.6967 14.3165 26.1022 14.5915 27.1853 15.1417C28.2684 15.6832 29.0893 16.4354 29.648 17.3981C30.2068 18.3523 30.5463 19.4569 30.6667 20.7119H26.3214C26.2354 20.093 26.0721 19.5687 25.8314 19.1389C25.5993 18.7005 25.264 18.3695 24.8256 18.146C24.3872 17.9139 23.8199 17.7979 23.1236 17.7979C22.5821 17.7979 22.0878 17.9139 21.6408 18.146C21.2024 18.3781 20.8285 18.7305 20.519 19.2033C20.2095 19.6675 19.9688 20.2521 19.7969 20.9569C19.6336 21.6618 19.5519 22.487 19.5519 23.4326V24.5028C19.5519 25.4398 19.6293 26.2607 19.784 26.9656C19.9474 27.6705 20.188 28.2593 20.5061 28.7321C20.8327 29.1963 21.2454 29.5487 21.7439 29.7894C22.2511 30.0215 22.8485 30.1376 23.5362 30.1376C24.0176 30.1376 24.4302 30.0989 24.7741 30.0215C25.1179 29.9355 25.4016 29.8324 25.6251 29.712C25.8572 29.5831 26.0334 29.4628 26.1537 29.351V26.4369H23.0076V23.3294H30.6796Z" fill="#0B111E"/>
</svg>
